<svg xmlns="http://www.w3.org/2000/svg" fill="none" viewBox="53 40 262.5 499.43">
<g filter="url(#filter0_d_0_4910)">
<path fill-rule="evenodd" clip-rule="evenodd" d="M88.7761 40.5695H280.009C298.35 40.5695 313.217 54.8048 313.217 72.365V507.635C313.217 525.195 298.35 539.431 280.009 539.431H88.7761C70.4358 539.431 55.568 525.195 55.568 507.635V72.365C55.568 54.8048 70.4358 40.5695 88.7761 40.5695Z" fill="#213648"/>
</g>
<path opacity="0.595562" fill-rule="evenodd" clip-rule="evenodd" d="M280.749 40H87.9227C78.9202 40.549 70.6175 44.6569 63.0148 52.3239C67.9042 48.0559 76.625 42.3446 88.1547 42.3446C88.1547 42.3446 272.83 42.3446 280.517 42.3446C292.046 42.3446 300.767 48.0559 305.657 52.3239C298.054 44.6569 289.751 40.549 280.749 40Z" fill="url(#paint0_linear_0_4910)" fill-opacity="0.65"/>
<path opacity="0.75" fill-rule="evenodd" clip-rule="evenodd" d="M307.999 502.671V74.9818C307.999 63.5065 303.782 59.2644 301.266 56.5405C298.75 53.8166 298.643 52.4272 302.258 54.4839C305.873 56.5405 313.103 62.5306 313.103 74.9818V502.671C313.103 515.122 305.873 521.112 302.258 523.169C298.643 525.225 298.75 523.836 301.266 521.112C303.782 518.388 307.999 514.146 307.999 502.671Z" fill="url(#paint1_linear_0_4910)"/>
<path opacity="0.75" fill-rule="evenodd" clip-rule="evenodd" d="M60.672 502.671V74.9818C60.672 63.5065 64.8894 59.2644 67.4053 56.5405C69.9212 53.8166 70.0283 52.4272 66.4134 54.4839C62.7984 56.5405 55.568 62.5306 55.568 74.9818V502.671C55.568 515.122 62.7984 521.112 66.4134 523.169C70.0283 525.225 69.9212 523.836 67.4053 521.112C64.8894 518.388 60.672 514.146 60.672 502.671Z" fill="url(#paint2_linear_0_4910)"/>
<path fill-rule="evenodd" clip-rule="evenodd" d="M53 143.556C53 142.452 53.8954 141.556 55 141.556H55.9645C57.0691 141.556 57.9645 142.452 57.9645 143.556V203.907C57.9645 205.012 57.0691 205.907 55.9645 205.907H55C53.8954 205.907 53 205.012 53 203.907V143.556Z" fill="#2E423C"/>
<path fill-rule="evenodd" clip-rule="evenodd" d="M310.535 196.043C310.535 194.939 311.431 194.043 312.535 194.043H313.5C314.605 194.043 315.5 194.939 315.5 196.043V238.993C315.5 240.098 314.605 240.993 313.5 240.993H312.535C311.431 240.993 310.535 240.098 310.535 238.993V196.043Z" fill="#2E423C"/>
<g clip-path="url(#clip0_0_4910)">
<path fill-rule="evenodd" clip-rule="evenodd" d="M161.676 52.4445L87.2698 52.4445C76.1653 52.4445 68.0742 60.0078 68.0742 69.8859V492.276C68.0742 505.155 80.5765 516.567 94.7134 516.567H274.046C287.664 516.567 300.686 505.067 300.686 492.276V71.0276C300.686 59.188 291.896 52.5149 281.49 52.4445L205.904 52.4445C205.618 52.4914 200.425 54.6262 198.231 60.0078C196.036 65.3893 191.621 69.6793 186.787 69.6793H181.172C178.874 69.6793 172.824 67.4496 169.76 60.0078C166.697 52.5659 161.963 52.4914 161.676 52.4445Z" fill="white"/>
<mask id="mask0_0_4910" style="mask-type:luminance" maskUnits="userSpaceOnUse" x="68" y="52" width="233" height="465">
<path fill-rule="evenodd" clip-rule="evenodd" d="M161.676 52.4445L87.2698 52.4445C76.1653 52.4445 68.0742 60.0078 68.0742 69.8859V492.276C68.0742 505.155 80.5765 516.567 94.7134 516.567H274.046C287.664 516.567 300.686 505.067 300.686 492.276V71.0276C300.686 59.188 291.896 52.5149 281.49 52.4445L205.904 52.4445C205.618 52.4914 200.425 54.6262 198.231 60.0078C196.036 65.3893 191.621 69.6793 186.787 69.6793H181.172C178.874 69.6793 172.824 67.4496 169.76 60.0078C166.697 52.5659 161.963 52.4914 161.676 52.4445Z" fill="white"/>
</mask>
<g mask="url(#mask0_0_4910)">
<rect x="68" y="52.4445" width="233" height="465" fill="url(#paint3_linear_0_4910)"/>
<path d="M147.504 181V163.672H143.376V161.032C144.699 161.032 145.765 160.909 146.576 160.664C147.397 160.408 148.011 160.045 148.416 159.576C148.821 159.096 149.061 158.525 149.136 157.864H152.24V181H147.504ZM157.496 181V178.696V177.512C157.496 176.339 157.714 175.325 158.152 174.472C158.589 173.608 159.165 172.861 159.88 172.232C160.605 171.592 161.394 171.032 162.248 170.552C163.112 170.072 163.976 169.619 164.84 169.192C165.704 168.765 166.493 168.339 167.208 167.912C167.933 167.475 168.514 166.989 168.952 166.456C169.389 165.923 169.608 165.293 169.608 164.568C169.608 163.64 169.282 162.883 168.632 162.296C167.992 161.709 167.112 161.416 165.992 161.416C164.829 161.416 163.842 161.752 163.032 162.424C162.221 163.096 161.72 164.109 161.528 165.464H157.064C157.085 163.992 157.426 162.659 158.088 161.464C158.76 160.259 159.762 159.304 161.096 158.6C162.429 157.896 164.104 157.544 166.12 157.544C167.848 157.544 169.336 157.837 170.584 158.424C171.842 159.011 172.813 159.827 173.496 160.872C174.178 161.917 174.52 163.139 174.52 164.536C174.52 165.699 174.306 166.701 173.88 167.544C173.453 168.387 172.888 169.107 172.184 169.704C171.48 170.301 170.706 170.824 169.864 171.272C169.021 171.72 168.178 172.136 167.336 172.52C166.504 172.904 165.736 173.299 165.032 173.704C164.328 174.099 163.762 174.547 163.336 175.048C162.909 175.549 162.696 176.152 162.696 176.856V177.064H174.488V181H157.496ZM182.704 164.856V169.864H177.584V164.856H182.704ZM182.704 175.912V180.904H177.584V175.912H182.704ZM196.451 157.864H201.043V171.96H204.611V175.88H201.043V181H196.547L196.563 175.88H185.907V172.04L196.451 157.864ZM190.227 171.96H196.563V163.48L190.227 171.96ZM215.435 181.352C213.995 181.352 212.651 181.075 211.403 180.52C210.155 179.965 209.137 179.187 208.347 178.184C207.558 177.171 207.115 175.987 207.019 174.632H211.467C211.659 175.528 212.086 176.259 212.747 176.824C213.409 177.379 214.241 177.656 215.243 177.656C216.353 177.656 217.323 177.395 218.155 176.872C218.998 176.349 219.627 175.517 220.043 174.376C220.47 173.235 220.619 171.741 220.491 169.896C220.193 170.461 219.777 170.957 219.243 171.384C218.721 171.8 218.107 172.125 217.403 172.36C216.699 172.584 215.915 172.696 215.051 172.696C213.483 172.696 212.091 172.403 210.875 171.816C209.67 171.219 208.721 170.376 208.027 169.288C207.345 168.189 207.003 166.888 207.003 165.384C207.003 163.869 207.366 162.52 208.091 161.336C208.817 160.152 209.83 159.224 211.131 158.552C212.433 157.88 213.958 157.544 215.707 157.544C217.67 157.544 219.361 158.013 220.779 158.952C222.209 159.88 223.302 161.203 224.059 162.92C224.827 164.627 225.211 166.637 225.211 168.952C225.211 171.715 224.817 174.019 224.027 175.864C223.249 177.699 222.129 179.075 220.667 179.992C219.206 180.899 217.462 181.352 215.435 181.352ZM215.851 168.984C216.502 168.984 217.131 168.84 217.739 168.552C218.358 168.253 218.865 167.88 219.259 167.432C219.654 166.984 219.851 166.52 219.851 166.04C219.862 165.005 219.697 164.12 219.355 163.384C219.025 162.637 218.555 162.067 217.947 161.672C217.35 161.277 216.651 161.08 215.851 161.08C215.115 161.08 214.459 161.251 213.883 161.592C213.307 161.933 212.854 162.413 212.523 163.032C212.193 163.651 212.027 164.365 212.027 165.176C212.027 166.381 212.379 167.32 213.083 167.992C213.787 168.653 214.71 168.984 215.851 168.984Z" fill="white"/>
</g>
</g>
<g clip-path="url(#clip1_0_4910)">
<g filter="url(#filter1_d_0_4910)">
<rect x="75" y="207" width="218" height="87" rx="5" fill="#FBFCFE"/>
</g>
<g clip-path="url(#clip2_0_4910)">
<path d="M91.81 233V225.77H94.47C94.9967 225.77 95.4683 225.862 95.885 226.045C96.3017 226.225 96.63 226.492 96.87 226.845C97.1133 227.198 97.235 227.63 97.235 228.14C97.235 228.62 97.1283 229.03 96.915 229.37C96.7017 229.71 96.4017 229.97 96.015 230.15C95.6317 230.33 95.18 230.42 94.66 230.42H93.28V233H91.81ZM93.265 229.29H94.62C94.9867 229.29 95.2867 229.173 95.52 228.94C95.7533 228.703 95.87 228.412 95.87 228.065C95.87 227.705 95.7467 227.42 95.5 227.21C95.2533 226.997 94.9533 226.89 94.6 226.89H93.265V229.29ZM99.5117 233.1C99.1817 233.1 98.8851 233.038 98.6217 232.915C98.3584 232.792 98.1501 232.613 97.9967 232.38C97.8434 232.143 97.7667 231.857 97.7667 231.52C97.7667 230.953 97.9784 230.523 98.4017 230.23C98.8251 229.933 99.4934 229.78 100.407 229.77L101.052 229.76V229.45C101.052 229.213 100.982 229.032 100.842 228.905C100.705 228.775 100.492 228.712 100.202 228.715C99.9884 228.718 99.7851 228.768 99.5917 228.865C99.4017 228.962 99.2717 229.13 99.2017 229.37H97.9867C98.0067 228.997 98.1151 228.69 98.3117 228.45C98.5084 228.207 98.7751 228.027 99.1117 227.91C99.4517 227.79 99.8367 227.73 100.267 227.73C100.797 227.73 101.222 227.797 101.542 227.93C101.862 228.06 102.093 228.248 102.237 228.495C102.38 228.738 102.452 229.028 102.452 229.365V233H101.232L101.112 232.11C100.935 232.483 100.713 232.742 100.447 232.885C100.183 233.028 99.8717 233.1 99.5117 233.1ZM100.002 232.14C100.135 232.14 100.263 232.117 100.387 232.07C100.513 232.02 100.625 231.955 100.722 231.875C100.822 231.792 100.902 231.698 100.962 231.595C101.022 231.492 101.052 231.385 101.052 231.275V230.51L100.527 230.52C100.283 230.523 100.057 230.553 99.8467 230.61C99.6367 230.663 99.4667 230.752 99.3367 230.875C99.2101 230.998 99.1467 231.165 99.1467 231.375C99.1467 231.615 99.2301 231.803 99.3967 231.94C99.5634 232.073 99.7651 232.14 100.002 232.14ZM104.364 234.65C104.01 234.65 103.76 234.62 103.614 234.56C103.47 234.503 103.399 234.475 103.399 234.475V233.545L103.909 233.565C104.132 233.578 104.312 233.567 104.449 233.53C104.585 233.497 104.689 233.452 104.759 233.395C104.832 233.338 104.884 233.278 104.914 233.215C104.944 233.155 104.965 233.107 104.979 233.07L105.074 232.785L103.064 227.83H104.509L105.749 231.2L107.004 227.83H108.429L106.334 233.03C106.154 233.47 105.964 233.807 105.764 234.04C105.564 234.273 105.347 234.433 105.114 234.52C104.884 234.607 104.634 234.65 104.364 234.65ZM108.228 233L110.818 225.77H112.358L114.943 233H113.488L112.898 231.325H110.298L109.693 233H108.228ZM110.623 230.05H112.548L111.593 227.18L110.623 230.05ZM116.029 233V225.77H118.689C119.215 225.77 119.687 225.862 120.104 226.045C120.52 226.225 120.849 226.492 121.089 226.845C121.332 227.198 121.454 227.63 121.454 228.14C121.454 228.62 121.347 229.03 121.134 229.37C120.92 229.71 120.62 229.97 120.234 230.15C119.85 230.33 119.399 230.42 118.879 230.42H117.499V233H116.029ZM117.484 229.29H118.839C119.205 229.29 119.505 229.173 119.739 228.94C119.972 228.703 120.089 228.412 120.089 228.065C120.089 227.705 119.965 227.42 119.719 227.21C119.472 226.997 119.172 226.89 118.819 226.89H117.484V229.29ZM122.552 225.77H124.007V233H122.552V225.77Z" fill="#BA4270"/>
<path opacity="0.5" d="M238.609 231.295C238.609 231.678 238.566 232.005 238.479 232.275C238.392 232.545 238.237 232.75 238.014 232.89C237.794 233.03 237.481 233.1 237.074 233.1C236.817 233.1 236.576 233.07 236.349 233.01C236.126 232.95 235.977 232.905 235.904 232.875L235.969 231.99C236.072 232.027 236.191 232.073 236.324 232.13C236.461 232.183 236.629 232.21 236.829 232.21C237.156 232.21 237.379 232.12 237.499 231.94C237.622 231.76 237.684 231.457 237.684 231.03V225.77H238.609V231.295ZM242.041 233.1C241.771 233.097 241.516 233.058 241.276 232.985C241.039 232.908 240.829 232.797 240.646 232.65C240.462 232.503 240.317 232.322 240.211 232.105C240.107 231.885 240.056 231.63 240.056 231.34V227.83H240.981V231.245C240.981 231.582 241.084 231.855 241.291 232.065C241.501 232.275 241.816 232.38 242.236 232.38C242.616 232.38 242.921 232.282 243.151 232.085C243.384 231.885 243.501 231.588 243.501 231.195V227.83H244.421V233H243.686L243.591 232.01C243.527 232.27 243.419 232.48 243.266 232.64C243.116 232.8 242.934 232.918 242.721 232.995C242.511 233.068 242.284 233.103 242.041 233.1ZM247.698 233.1C247.338 233.1 247.003 233.045 246.693 232.935C246.387 232.822 246.132 232.647 245.928 232.41C245.725 232.17 245.597 231.865 245.543 231.495H246.383C246.43 231.698 246.513 231.868 246.633 232.005C246.757 232.138 246.91 232.24 247.093 232.31C247.277 232.377 247.477 232.41 247.693 232.41C248.04 232.41 248.32 232.345 248.533 232.215C248.747 232.085 248.853 231.885 248.853 231.615C248.853 231.425 248.797 231.273 248.683 231.16C248.573 231.043 248.402 230.958 248.168 230.905L247.098 230.64C246.682 230.54 246.348 230.383 246.098 230.17C245.848 229.957 245.723 229.658 245.723 229.275C245.72 228.972 245.792 228.705 245.938 228.475C246.085 228.245 246.305 228.063 246.598 227.93C246.892 227.797 247.257 227.73 247.693 227.73C248.253 227.73 248.705 227.857 249.048 228.11C249.395 228.36 249.575 228.728 249.588 229.215H248.773C248.74 228.968 248.628 228.773 248.438 228.63C248.252 228.483 248 228.41 247.683 228.41C247.353 228.41 247.085 228.477 246.878 228.61C246.672 228.74 246.568 228.943 246.568 229.22C246.568 229.403 246.642 229.548 246.788 229.655C246.935 229.758 247.152 229.845 247.438 229.915L248.473 230.175C248.713 230.238 248.91 230.322 249.063 230.425C249.22 230.528 249.343 230.643 249.433 230.77C249.527 230.897 249.592 231.03 249.628 231.17C249.668 231.307 249.688 231.438 249.688 231.565C249.688 231.882 249.608 232.155 249.448 232.385C249.292 232.612 249.065 232.788 248.768 232.915C248.475 233.038 248.118 233.1 247.698 233.1ZM253.5 228.505H252.335V231.72C252.335 231.903 252.353 232.038 252.39 232.125C252.43 232.208 252.495 232.262 252.585 232.285C252.678 232.308 252.805 232.32 252.965 232.32H253.53V232.94C253.466 232.963 253.37 232.983 253.24 233C253.113 233.017 252.955 233.025 252.765 233.025C252.408 233.025 252.131 232.977 251.935 232.88C251.738 232.783 251.6 232.64 251.52 232.45C251.443 232.26 251.405 232.027 251.405 231.75V228.505H250.565V227.83H251.43L251.655 226.325H252.335V227.825H253.5V228.505ZM262.028 225.77H262.953V233H262.128L258.248 227.3V233H257.323V225.77H258.208L262.028 231.39V225.77ZM266.659 233.1C266.182 233.1 265.765 232.998 265.409 232.795C265.052 232.588 264.775 232.287 264.579 231.89C264.382 231.493 264.284 231.008 264.284 230.435C264.284 229.895 264.375 229.422 264.559 229.015C264.742 228.608 265.01 228.293 265.364 228.07C265.72 227.843 266.152 227.73 266.659 227.73C267.135 227.73 267.549 227.835 267.899 228.045C268.252 228.252 268.525 228.557 268.719 228.96C268.912 229.363 269.009 229.855 269.009 230.435C269.009 230.962 268.919 231.425 268.739 231.825C268.562 232.225 268.299 232.538 267.949 232.765C267.602 232.988 267.172 233.1 266.659 233.1ZM266.659 232.37C266.969 232.37 267.23 232.292 267.444 232.135C267.657 231.978 267.819 231.753 267.929 231.46C268.039 231.167 268.094 230.818 268.094 230.415C268.094 230.045 268.045 229.713 267.949 229.42C267.852 229.123 267.697 228.888 267.484 228.715C267.274 228.542 266.999 228.455 266.659 228.455C266.345 228.455 266.08 228.533 265.864 228.69C265.647 228.843 265.482 229.067 265.369 229.36C265.259 229.653 265.204 230.005 265.204 230.415C265.204 230.778 265.254 231.108 265.354 231.405C265.454 231.702 265.61 231.937 265.824 232.11C266.037 232.283 266.315 232.37 266.659 232.37ZM276.833 227.83L275.268 233H274.358L273.178 229.185L272.058 233H271.153L269.558 227.83H270.413L271.598 231.805H271.678L272.843 227.83H273.543L274.753 231.795H274.833L275.968 227.83H276.833Z" fill="#36536B"/>
</g>
<path d="M91.23 242.62V241.77H96.7V242.62H94.495V249H93.565V242.62H91.23ZM97.7025 249V241.57H98.6025V244.59C98.6892 244.447 98.8058 244.313 98.9525 244.19C99.0992 244.063 99.2775 243.962 99.4875 243.885C99.6975 243.805 99.9408 243.765 100.218 243.765C100.554 243.765 100.859 243.828 101.133 243.955C101.406 244.078 101.623 244.255 101.783 244.485C101.943 244.715 102.023 244.988 102.023 245.305V249H101.098V245.49C101.098 245.18 100.991 244.942 100.778 244.775C100.568 244.605 100.293 244.52 99.9525 244.52C99.7225 244.52 99.5058 244.558 99.3025 244.635C99.0992 244.708 98.9342 244.822 98.8075 244.975C98.6842 245.125 98.6225 245.317 98.6225 245.55V249H97.7025ZM104.124 246.63C104.124 246.957 104.178 247.253 104.284 247.52C104.394 247.783 104.559 247.993 104.779 248.15C105.003 248.307 105.281 248.385 105.614 248.385C105.944 248.385 106.228 248.308 106.464 248.155C106.704 248.002 106.858 247.78 106.924 247.49H107.799C107.736 247.84 107.596 248.135 107.379 248.375C107.163 248.615 106.901 248.797 106.594 248.92C106.288 249.04 105.968 249.1 105.634 249.1C105.151 249.1 104.726 248.995 104.359 248.785C103.993 248.575 103.706 248.273 103.499 247.88C103.293 247.487 103.189 247.015 103.189 246.465C103.189 245.922 103.283 245.445 103.469 245.035C103.656 244.625 103.926 244.305 104.279 244.075C104.636 243.845 105.064 243.73 105.564 243.73C106.051 243.73 106.463 243.835 106.799 244.045C107.136 244.255 107.391 244.552 107.564 244.935C107.741 245.315 107.829 245.767 107.829 246.29V246.63H104.124ZM104.129 246.005H106.939C106.939 245.708 106.889 245.442 106.789 245.205C106.689 244.965 106.536 244.777 106.329 244.64C106.126 244.5 105.869 244.43 105.559 244.43C105.236 244.43 104.968 244.508 104.754 244.665C104.544 244.818 104.386 245.017 104.279 245.26C104.176 245.5 104.126 245.748 104.129 246.005ZM111.335 250.61V243.83H112.255L112.265 244.73C112.325 244.623 112.402 244.512 112.495 244.395C112.592 244.278 112.709 244.17 112.845 244.07C112.985 243.97 113.147 243.888 113.33 243.825C113.517 243.762 113.729 243.73 113.965 243.73C114.379 243.73 114.742 243.825 115.055 244.015C115.372 244.202 115.619 244.488 115.795 244.875C115.972 245.262 116.06 245.752 116.06 246.345C116.06 246.938 115.974 247.44 115.8 247.85C115.63 248.257 115.384 248.567 115.06 248.78C114.737 248.993 114.347 249.1 113.89 249.1C113.66 249.1 113.455 249.067 113.275 249C113.099 248.937 112.944 248.853 112.81 248.75C112.68 248.643 112.57 248.53 112.48 248.41C112.394 248.29 112.322 248.175 112.265 248.065V250.61H111.335ZM113.715 248.38C114.142 248.38 114.49 248.218 114.76 247.895C115.03 247.568 115.165 247.062 115.165 246.375C115.165 245.785 115.042 245.317 114.795 244.97C114.549 244.623 114.189 244.45 113.715 244.45C113.235 244.45 112.872 244.628 112.625 244.985C112.379 245.338 112.255 245.802 112.255 246.375C112.255 246.745 112.31 247.082 112.42 247.385C112.53 247.688 112.694 247.93 112.91 248.11C113.127 248.29 113.395 248.38 113.715 248.38ZM118.634 249.1C118.301 249.1 118.006 249.042 117.749 248.925C117.493 248.805 117.291 248.633 117.144 248.41C117.001 248.187 116.929 247.917 116.929 247.6C116.929 247.027 117.129 246.6 117.529 246.32C117.929 246.04 118.571 245.89 119.454 245.87L120.379 245.845V245.44C120.379 245.123 120.284 244.873 120.094 244.69C119.904 244.503 119.609 244.41 119.209 244.41C118.913 244.413 118.651 244.483 118.424 244.62C118.201 244.757 118.056 244.98 117.989 245.29H117.174C117.194 244.953 117.289 244.67 117.459 244.44C117.629 244.207 117.866 244.03 118.169 243.91C118.476 243.79 118.838 243.73 119.254 243.73C119.704 243.73 120.078 243.793 120.374 243.92C120.674 244.047 120.898 244.233 121.044 244.48C121.194 244.727 121.269 245.03 121.269 245.39V249H120.479L120.414 248.03C120.214 248.433 119.959 248.713 119.649 248.87C119.343 249.023 119.004 249.1 118.634 249.1ZM118.914 248.435C119.088 248.435 119.259 248.403 119.429 248.34C119.603 248.277 119.761 248.192 119.904 248.085C120.048 247.975 120.161 247.853 120.244 247.72C120.331 247.583 120.376 247.443 120.379 247.3V246.415L119.609 246.43C119.216 246.437 118.886 246.477 118.619 246.55C118.356 246.623 118.158 246.738 118.024 246.895C117.894 247.052 117.829 247.257 117.829 247.51C117.829 247.8 117.929 248.027 118.129 248.19C118.333 248.353 118.594 248.435 118.914 248.435ZM123.193 250.65C122.89 250.65 122.681 250.628 122.568 250.585C122.455 250.542 122.398 250.52 122.398 250.52V249.92L122.923 249.93C123.116 249.937 123.276 249.923 123.403 249.89C123.53 249.857 123.631 249.812 123.708 249.755C123.785 249.698 123.843 249.635 123.883 249.565C123.926 249.495 123.961 249.428 123.988 249.365L124.168 248.875L122.148 243.83H123.083L124.608 247.82L126.123 243.83H127.028L124.848 249.39C124.715 249.717 124.565 249.972 124.398 250.155C124.235 250.338 124.051 250.467 123.848 250.54C123.648 250.613 123.43 250.65 123.193 250.65ZM128.015 249V243.83H128.905V244.58C129.048 244.353 129.245 244.155 129.495 243.985C129.745 243.815 130.07 243.73 130.47 243.73C130.657 243.73 130.847 243.762 131.04 243.825C131.237 243.888 131.417 243.983 131.58 244.11C131.743 244.237 131.87 244.392 131.96 244.575C132.12 244.322 132.337 244.118 132.61 243.965C132.883 243.808 133.192 243.73 133.535 243.73C133.715 243.73 133.903 243.758 134.1 243.815C134.297 243.868 134.478 243.965 134.645 244.105C134.815 244.242 134.953 244.433 135.06 244.68C135.167 244.923 135.22 245.237 135.22 245.62V249H134.29V245.71C134.29 245.397 134.24 245.155 134.14 244.985C134.04 244.812 133.908 244.69 133.745 244.62C133.585 244.55 133.413 244.515 133.23 244.515C133.07 244.515 132.9 244.547 132.72 244.61C132.54 244.673 132.387 244.78 132.26 244.93C132.133 245.08 132.07 245.285 132.07 245.545V249H131.15V245.44C131.15 245.237 131.095 245.067 130.985 244.93C130.878 244.793 130.743 244.69 130.58 244.62C130.42 244.55 130.26 244.515 130.1 244.515C129.923 244.515 129.745 244.55 129.565 244.62C129.388 244.69 129.238 244.802 129.115 244.955C128.995 245.105 128.935 245.302 128.935 245.545V249H128.015ZM137.327 246.63C137.327 246.957 137.381 247.253 137.487 247.52C137.597 247.783 137.762 247.993 137.982 248.15C138.206 248.307 138.484 248.385 138.817 248.385C139.147 248.385 139.431 248.308 139.667 248.155C139.907 248.002 140.061 247.78 140.127 247.49H141.002C140.939 247.84 140.799 248.135 140.582 248.375C140.366 248.615 140.104 248.797 139.797 248.92C139.491 249.04 139.171 249.1 138.837 249.1C138.354 249.1 137.929 248.995 137.562 248.785C137.196 248.575 136.909 248.273 136.702 247.88C136.496 247.487 136.392 247.015 136.392 246.465C136.392 245.922 136.486 245.445 136.672 245.035C136.859 244.625 137.129 244.305 137.482 244.075C137.839 243.845 138.267 243.73 138.767 243.73C139.254 243.73 139.666 243.835 140.002 244.045C140.339 244.255 140.594 244.552 140.767 244.935C140.944 245.315 141.032 245.767 141.032 246.29V246.63H137.327ZM137.332 246.005H140.142C140.142 245.708 140.092 245.442 139.992 245.205C139.892 244.965 139.739 244.777 139.532 244.64C139.329 244.5 139.072 244.43 138.762 244.43C138.439 244.43 138.171 244.508 137.957 244.665C137.747 244.818 137.589 245.017 137.482 245.26C137.379 245.5 137.329 245.748 137.332 246.005ZM142.302 249V243.83H143.197V244.58C143.28 244.437 143.395 244.302 143.542 244.175C143.692 244.048 143.872 243.947 144.082 243.87C144.295 243.793 144.54 243.755 144.817 243.755C145.144 243.755 145.444 243.82 145.717 243.95C145.994 244.08 146.214 244.283 146.377 244.56C146.544 244.833 146.627 245.187 146.627 245.62V249H145.702V245.71C145.702 245.307 145.595 245.008 145.382 244.815C145.172 244.618 144.899 244.52 144.562 244.52C144.329 244.52 144.11 244.558 143.907 244.635C143.704 244.708 143.539 244.822 143.412 244.975C143.285 245.125 143.222 245.315 143.222 245.545V249H142.302ZM150.456 244.505H149.291V247.72C149.291 247.903 149.309 248.038 149.346 248.125C149.386 248.208 149.451 248.262 149.541 248.285C149.634 248.308 149.761 248.32 149.921 248.32H150.486V248.94C150.423 248.963 150.326 248.983 150.196 249C150.069 249.017 149.911 249.025 149.721 249.025C149.364 249.025 149.088 248.977 148.891 248.88C148.694 248.783 148.556 248.64 148.476 248.45C148.399 248.26 148.361 248.027 148.361 247.75V244.505H147.521V243.83H148.386L148.611 242.325H149.291V243.825H150.456V244.505ZM154.089 249V241.57H154.989V244.59C155.076 244.447 155.193 244.313 155.339 244.19C155.486 244.063 155.664 243.962 155.874 243.885C156.084 243.805 156.328 243.765 156.604 243.765C156.941 243.765 157.246 243.828 157.519 243.955C157.793 244.078 158.009 244.255 158.169 244.485C158.329 244.715 158.409 244.988 158.409 245.305V249H157.484V245.49C157.484 245.18 157.378 244.942 157.164 244.775C156.954 244.605 156.679 244.52 156.339 244.52C156.109 244.52 155.893 244.558 155.689 244.635C155.486 244.708 155.321 244.822 155.194 244.975C155.071 245.125 155.009 245.317 155.009 245.55V249H154.089ZM161.261 249.1C160.928 249.1 160.633 249.042 160.376 248.925C160.12 248.805 159.918 248.633 159.771 248.41C159.628 248.187 159.556 247.917 159.556 247.6C159.556 247.027 159.756 246.6 160.156 246.32C160.556 246.04 161.198 245.89 162.081 245.87L163.006 245.845V245.44C163.006 245.123 162.911 244.873 162.721 244.69C162.531 244.503 162.236 244.41 161.836 244.41C161.54 244.413 161.278 244.483 161.051 244.62C160.828 244.757 160.683 244.98 160.616 245.29H159.801C159.821 244.953 159.916 244.67 160.086 244.44C160.256 244.207 160.493 244.03 160.796 243.91C161.103 243.79 161.465 243.73 161.881 243.73C162.331 243.73 162.705 243.793 163.001 243.92C163.301 244.047 163.525 244.233 163.671 244.48C163.821 244.727 163.896 245.03 163.896 245.39V249H163.106L163.041 248.03C162.841 248.433 162.586 248.713 162.276 248.87C161.97 249.023 161.631 249.1 161.261 249.1ZM161.541 248.435C161.715 248.435 161.886 248.403 162.056 248.34C162.23 248.277 162.388 248.192 162.531 248.085C162.675 247.975 162.788 247.853 162.871 247.72C162.958 247.583 163.003 247.443 163.006 247.3V246.415L162.236 246.43C161.843 246.437 161.513 246.477 161.246 246.55C160.983 246.623 160.785 246.738 160.651 246.895C160.521 247.052 160.456 247.257 160.456 247.51C160.456 247.8 160.556 248.027 160.756 248.19C160.96 248.353 161.221 248.435 161.541 248.435ZM167.223 249.1C166.863 249.1 166.528 249.045 166.218 248.935C165.911 248.822 165.656 248.647 165.453 248.41C165.25 248.17 165.121 247.865 165.068 247.495H165.908C165.955 247.698 166.038 247.868 166.158 248.005C166.281 248.138 166.435 248.24 166.618 248.31C166.801 248.377 167.001 248.41 167.218 248.41C167.565 248.41 167.845 248.345 168.058 248.215C168.271 248.085 168.378 247.885 168.378 247.615C168.378 247.425 168.321 247.273 168.208 247.16C168.098 247.043 167.926 246.958 167.693 246.905L166.623 246.64C166.206 246.54 165.873 246.383 165.623 246.17C165.373 245.957 165.248 245.658 165.248 245.275C165.245 244.972 165.316 244.705 165.463 244.475C165.61 244.245 165.83 244.063 166.123 243.93C166.416 243.797 166.781 243.73 167.218 243.73C167.778 243.73 168.23 243.857 168.573 244.11C168.92 244.36 169.1 244.728 169.113 245.215H168.298C168.265 244.968 168.153 244.773 167.963 244.63C167.776 244.483 167.525 244.41 167.208 244.41C166.878 244.41 166.61 244.477 166.403 244.61C166.196 244.74 166.093 244.943 166.093 245.22C166.093 245.403 166.166 245.548 166.313 245.655C166.46 245.758 166.676 245.845 166.963 245.915L167.998 246.175C168.238 246.238 168.435 246.322 168.588 246.425C168.745 246.528 168.868 246.643 168.958 246.77C169.051 246.897 169.116 247.03 169.153 247.17C169.193 247.307 169.213 247.438 169.213 247.565C169.213 247.882 169.133 248.155 168.973 248.385C168.816 248.612 168.59 248.788 168.293 248.915C168 249.038 167.643 249.1 167.223 249.1ZM175.326 249.1C175.023 249.1 174.766 249.06 174.556 248.98C174.349 248.9 174.179 248.798 174.046 248.675C173.913 248.548 173.809 248.42 173.736 248.29C173.663 248.157 173.609 248.04 173.576 247.94L173.476 249H172.771V241.57H173.701V244.65C173.744 244.563 173.809 244.468 173.896 244.365C173.986 244.262 174.101 244.162 174.241 244.065C174.381 243.968 174.546 243.888 174.736 243.825C174.929 243.762 175.149 243.73 175.396 243.73C176.043 243.73 176.556 243.955 176.936 244.405C177.319 244.855 177.511 245.518 177.511 246.395C177.511 246.938 177.429 247.413 177.266 247.82C177.103 248.223 176.859 248.538 176.536 248.765C176.213 248.988 175.809 249.1 175.326 249.1ZM175.161 248.39C175.581 248.39 175.923 248.228 176.186 247.905C176.449 247.578 176.581 247.06 176.581 246.35C176.581 245.747 176.458 245.28 176.211 244.95C175.968 244.617 175.611 244.45 175.141 244.45C174.798 244.45 174.521 244.525 174.311 244.675C174.104 244.822 173.951 245.037 173.851 245.32C173.754 245.603 173.704 245.947 173.701 246.35C173.701 247.073 173.813 247.595 174.036 247.915C174.263 248.232 174.638 248.39 175.161 248.39ZM179.378 246.63C179.378 246.957 179.431 247.253 179.538 247.52C179.648 247.783 179.813 247.993 180.033 248.15C180.256 248.307 180.535 248.385 180.868 248.385C181.198 248.385 181.481 248.308 181.718 248.155C181.958 248.002 182.111 247.78 182.178 247.49H183.053C182.99 247.84 182.85 248.135 182.633 248.375C182.416 248.615 182.155 248.797 181.848 248.92C181.541 249.04 181.221 249.1 180.888 249.1C180.405 249.1 179.98 248.995 179.613 248.785C179.246 248.575 178.96 248.273 178.753 247.88C178.546 247.487 178.443 247.015 178.443 246.465C178.443 245.922 178.536 245.445 178.723 245.035C178.91 244.625 179.18 244.305 179.533 244.075C179.89 243.845 180.318 243.73 180.818 243.73C181.305 243.73 181.716 243.835 182.053 244.045C182.39 244.255 182.645 244.552 182.818 244.935C182.995 245.315 183.083 245.767 183.083 246.29V246.63H179.378ZM179.383 246.005H182.193C182.193 245.708 182.143 245.442 182.043 245.205C181.943 244.965 181.79 244.777 181.583 244.64C181.38 244.5 181.123 244.43 180.813 244.43C180.49 244.43 180.221 244.508 180.008 244.665C179.798 244.818 179.64 245.017 179.533 245.26C179.43 245.5 179.38 245.748 179.383 246.005ZM185.013 246.63C185.013 246.957 185.066 247.253 185.173 247.52C185.283 247.783 185.448 247.993 185.668 248.15C185.891 248.307 186.17 248.385 186.503 248.385C186.833 248.385 187.116 248.308 187.353 248.155C187.593 248.002 187.746 247.78 187.813 247.49H188.688C188.625 247.84 188.485 248.135 188.268 248.375C188.051 248.615 187.79 248.797 187.483 248.92C187.176 249.04 186.856 249.1 186.523 249.1C186.04 249.1 185.615 248.995 185.248 248.785C184.881 248.575 184.595 248.273 184.388 247.88C184.181 247.487 184.078 247.015 184.078 246.465C184.078 245.922 184.171 245.445 184.358 245.035C184.545 244.625 184.815 244.305 185.168 244.075C185.525 243.845 185.953 243.73 186.453 243.73C186.94 243.73 187.351 243.835 187.688 244.045C188.025 244.255 188.28 244.552 188.453 244.935C188.63 245.315 188.718 245.767 188.718 246.29V246.63H185.013ZM185.018 246.005H187.828C187.828 245.708 187.778 245.442 187.678 245.205C187.578 244.965 187.425 244.777 187.218 244.64C187.015 244.5 186.758 244.43 186.448 244.43C186.125 244.43 185.856 244.508 185.643 244.665C185.433 244.818 185.275 245.017 185.168 245.26C185.065 245.5 185.015 245.748 185.018 246.005ZM189.988 249V243.83H190.883V244.58C190.966 244.437 191.081 244.302 191.228 244.175C191.378 244.048 191.558 243.947 191.768 243.87C191.981 243.793 192.226 243.755 192.503 243.755C192.829 243.755 193.129 243.82 193.403 243.95C193.679 244.08 193.899 244.283 194.063 244.56C194.229 244.833 194.313 245.187 194.313 245.62V249H193.388V245.71C193.388 245.307 193.281 245.008 193.068 244.815C192.858 244.618 192.584 244.52 192.248 244.52C192.014 244.52 191.796 244.558 191.593 244.635C191.389 244.708 191.224 244.822 191.098 244.975C190.971 245.125 190.908 245.315 190.908 245.545V249H189.988ZM198.064 250.61V243.83H198.984L198.994 244.73C199.054 244.623 199.13 244.512 199.224 244.395C199.32 244.278 199.437 244.17 199.574 244.07C199.714 243.97 199.875 243.888 200.059 243.825C200.245 243.762 200.457 243.73 200.694 243.73C201.107 243.73 201.47 243.825 201.784 244.015C202.1 244.202 202.347 244.488 202.524 244.875C202.7 245.262 202.789 245.752 202.789 246.345C202.789 246.938 202.702 247.44 202.529 247.85C202.359 248.257 202.112 248.567 201.789 248.78C201.465 248.993 201.075 249.1 200.619 249.1C200.389 249.1 200.184 249.067 200.004 249C199.827 248.937 199.672 248.853 199.539 248.75C199.409 248.643 199.299 248.53 199.209 248.41C199.122 248.29 199.05 248.175 198.994 248.065V250.61H198.064ZM200.444 248.38C200.87 248.38 201.219 248.218 201.489 247.895C201.759 247.568 201.894 247.062 201.894 246.375C201.894 245.785 201.77 245.317 201.524 244.97C201.277 244.623 200.917 244.45 200.444 244.45C199.964 244.45 199.6 244.628 199.354 244.985C199.107 245.338 198.984 245.802 198.984 246.375C198.984 246.745 199.039 247.082 199.149 247.385C199.259 247.688 199.422 247.93 199.639 248.11C199.855 248.29 200.124 248.38 200.444 248.38ZM204.001 249V243.83H204.881V244.825C204.968 244.578 205.09 244.375 205.246 244.215C205.403 244.052 205.581 243.93 205.781 243.85C205.985 243.77 206.195 243.73 206.411 243.73C206.488 243.73 206.563 243.735 206.636 243.745C206.71 243.755 206.766 243.772 206.806 243.795V244.69C206.756 244.667 206.691 244.652 206.611 244.645C206.535 244.635 206.47 244.63 206.416 244.63C206.21 244.617 206.016 244.63 205.836 244.67C205.656 244.707 205.498 244.772 205.361 244.865C205.225 244.958 205.116 245.082 205.036 245.235C204.96 245.385 204.921 245.568 204.921 245.785V249H204.001ZM209.816 249.1C209.339 249.1 208.923 248.998 208.566 248.795C208.209 248.588 207.933 248.287 207.736 247.89C207.539 247.493 207.441 247.008 207.441 246.435C207.441 245.895 207.533 245.422 207.716 245.015C207.899 244.608 208.168 244.293 208.521 244.07C208.878 243.843 209.309 243.73 209.816 243.73C210.293 243.73 210.706 243.835 211.056 244.045C211.409 244.252 211.683 244.557 211.876 244.96C212.069 245.363 212.166 245.855 212.166 246.435C212.166 246.962 212.076 247.425 211.896 247.825C211.719 248.225 211.456 248.538 211.106 248.765C210.759 248.988 210.329 249.1 209.816 249.1ZM209.816 248.37C210.126 248.37 210.388 248.292 210.601 248.135C210.814 247.978 210.976 247.753 211.086 247.46C211.196 247.167 211.251 246.818 211.251 246.415C211.251 246.045 211.203 245.713 211.106 245.42C211.009 245.123 210.854 244.888 210.641 244.715C210.431 244.542 210.156 244.455 209.816 244.455C209.503 244.455 209.238 244.533 209.021 244.69C208.804 244.843 208.639 245.067 208.526 245.36C208.416 245.653 208.361 246.005 208.361 246.415C208.361 246.778 208.411 247.108 208.511 247.405C208.611 247.702 208.768 247.937 208.981 248.11C209.194 248.283 209.473 248.37 209.816 248.37ZM215.436 243.73C215.806 243.73 216.14 243.802 216.436 243.945C216.733 244.085 216.975 244.285 217.161 244.545C217.351 244.805 217.47 245.112 217.516 245.465H216.696C216.666 245.285 216.596 245.12 216.486 244.97C216.38 244.82 216.238 244.7 216.061 244.61C215.885 244.52 215.678 244.475 215.441 244.475C214.998 244.475 214.638 244.635 214.361 244.955C214.085 245.275 213.946 245.765 213.946 246.425C213.946 247.022 214.073 247.5 214.326 247.86C214.583 248.217 214.96 248.395 215.456 248.395C215.693 248.395 215.898 248.35 216.071 248.26C216.248 248.167 216.39 248.045 216.496 247.895C216.603 247.742 216.671 247.578 216.701 247.405H217.506C217.463 247.752 217.346 248.052 217.156 248.305C216.966 248.558 216.723 248.755 216.426 248.895C216.133 249.032 215.803 249.1 215.436 249.1C214.973 249.1 214.561 248.998 214.201 248.795C213.845 248.592 213.565 248.292 213.361 247.895C213.158 247.498 213.056 247.012 213.056 246.435C213.056 245.895 213.148 245.423 213.331 245.02C213.518 244.613 213.788 244.297 214.141 244.07C214.498 243.843 214.93 243.73 215.436 243.73ZM219.427 246.63C219.427 246.957 219.48 247.253 219.587 247.52C219.697 247.783 219.862 247.993 220.082 248.15C220.305 248.307 220.584 248.385 220.917 248.385C221.247 248.385 221.53 248.308 221.767 248.155C222.007 248.002 222.16 247.78 222.227 247.49H223.102C223.039 247.84 222.899 248.135 222.682 248.375C222.465 248.615 222.204 248.797 221.897 248.92C221.59 249.04 221.27 249.1 220.937 249.1C220.454 249.1 220.029 248.995 219.662 248.785C219.295 248.575 219.009 248.273 218.802 247.88C218.595 247.487 218.492 247.015 218.492 246.465C218.492 245.922 218.585 245.445 218.772 245.035C218.959 244.625 219.229 244.305 219.582 244.075C219.939 243.845 220.367 243.73 220.867 243.73C221.354 243.73 221.765 243.835 222.102 244.045C222.439 244.255 222.694 244.552 222.867 244.935C223.044 245.315 223.132 245.767 223.132 246.29V246.63H219.427ZM219.432 246.005H222.242C222.242 245.708 222.192 245.442 222.092 245.205C221.992 244.965 221.839 244.777 221.632 244.64C221.429 244.5 221.172 244.43 220.862 244.43C220.539 244.43 220.27 244.508 220.057 244.665C219.847 244.818 219.689 245.017 219.582 245.26C219.479 245.5 219.429 245.748 219.432 246.005ZM226.198 249.1C225.838 249.1 225.503 249.045 225.193 248.935C224.886 248.822 224.631 248.647 224.428 248.41C224.224 248.17 224.096 247.865 224.043 247.495H224.883C224.929 247.698 225.013 247.868 225.133 248.005C225.256 248.138 225.409 248.24 225.593 248.31C225.776 248.377 225.976 248.41 226.193 248.41C226.539 248.41 226.819 248.345 227.033 248.215C227.246 248.085 227.353 247.885 227.353 247.615C227.353 247.425 227.296 247.273 227.183 247.16C227.073 247.043 226.901 246.958 226.668 246.905L225.598 246.64C225.181 246.54 224.848 246.383 224.598 246.17C224.348 245.957 224.223 245.658 224.223 245.275C224.219 244.972 224.291 244.705 224.438 244.475C224.584 244.245 224.804 244.063 225.098 243.93C225.391 243.797 225.756 243.73 226.193 243.73C226.753 243.73 227.204 243.857 227.548 244.11C227.894 244.36 228.074 244.728 228.088 245.215H227.273C227.239 244.968 227.128 244.773 226.938 244.63C226.751 244.483 226.499 244.41 226.183 244.41C225.853 244.41 225.584 244.477 225.378 244.61C225.171 244.74 225.068 244.943 225.068 245.22C225.068 245.403 225.141 245.548 225.288 245.655C225.434 245.758 225.651 245.845 225.938 245.915L226.973 246.175C227.213 246.238 227.409 246.322 227.563 246.425C227.719 246.528 227.843 246.643 227.933 246.77C228.026 246.897 228.091 247.03 228.128 247.17C228.168 247.307 228.188 247.438 228.188 247.565C228.188 247.882 228.108 248.155 227.948 248.385C227.791 248.612 227.564 248.788 227.268 248.915C226.974 249.038 226.618 249.1 226.198 249.1ZM231.227 249.1C230.867 249.1 230.532 249.045 230.222 248.935C229.915 248.822 229.66 248.647 229.457 248.41C229.254 248.17 229.125 247.865 229.072 247.495H229.912C229.959 247.698 230.042 247.868 230.162 248.005C230.285 248.138 230.439 248.24 230.622 248.31C230.805 248.377 231.005 248.41 231.222 248.41C231.569 248.41 231.849 248.345 232.062 248.215C232.275 248.085 232.382 247.885 232.382 247.615C232.382 247.425 232.325 247.273 232.212 247.16C232.102 247.043 231.93 246.958 231.697 246.905L230.627 246.64C230.21 246.54 229.877 246.383 229.627 246.17C229.377 245.957 229.252 245.658 229.252 245.275C229.249 244.972 229.32 244.705 229.467 244.475C229.614 244.245 229.834 244.063 230.127 243.93C230.42 243.797 230.785 243.73 231.222 243.73C231.782 243.73 232.234 243.857 232.577 244.11C232.924 244.36 233.104 244.728 233.117 245.215H232.302C232.269 244.968 232.157 244.773 231.967 244.63C231.78 244.483 231.529 244.41 231.212 244.41C230.882 244.41 230.614 244.477 230.407 244.61C230.2 244.74 230.097 244.943 230.097 245.22C230.097 245.403 230.17 245.548 230.317 245.655C230.464 245.758 230.68 245.845 230.967 245.915L232.002 246.175C232.242 246.238 232.439 246.322 232.592 246.425C232.749 246.528 232.872 246.643 232.962 246.77C233.055 246.897 233.12 247.03 233.157 247.17C233.197 247.307 233.217 247.438 233.217 247.565C233.217 247.882 233.137 248.155 232.977 248.385C232.82 248.612 232.594 248.788 232.297 248.915C232.004 249.038 231.647 249.1 231.227 249.1ZM235.169 246.63C235.169 246.957 235.222 247.253 235.329 247.52C235.439 247.783 235.604 247.993 235.824 248.15C236.047 248.307 236.326 248.385 236.659 248.385C236.989 248.385 237.272 248.308 237.509 248.155C237.749 248.002 237.902 247.78 237.969 247.49H238.844C238.781 247.84 238.641 248.135 238.424 248.375C238.207 248.615 237.946 248.797 237.639 248.92C237.332 249.04 237.012 249.1 236.679 249.1C236.196 249.1 235.771 248.995 235.404 248.785C235.037 248.575 234.751 248.273 234.544 247.88C234.337 247.487 234.234 247.015 234.234 246.465C234.234 245.922 234.327 245.445 234.514 245.035C234.701 244.625 234.971 244.305 235.324 244.075C235.681 243.845 236.109 243.73 236.609 243.73C237.096 243.73 237.507 243.835 237.844 244.045C238.181 244.255 238.436 244.552 238.609 244.935C238.786 245.315 238.874 245.767 238.874 246.29V246.63H235.169ZM235.174 246.005H237.984C237.984 245.708 237.934 245.442 237.834 245.205C237.734 244.965 237.581 244.777 237.374 244.64C237.171 244.5 236.914 244.43 236.604 244.43C236.281 244.43 236.012 244.508 235.799 244.665C235.589 244.818 235.431 245.017 235.324 245.26C235.221 245.5 235.171 245.748 235.174 246.005ZM242.009 249.1C241.339 249.1 240.807 248.87 240.414 248.41C240.021 247.95 239.824 247.278 239.824 246.395C239.824 245.858 239.902 245.39 240.059 244.99C240.219 244.59 240.456 244.28 240.769 244.06C241.082 243.84 241.472 243.73 241.939 243.73C242.186 243.73 242.404 243.762 242.594 243.825C242.787 243.888 242.954 243.968 243.094 244.065C243.234 244.162 243.347 244.262 243.434 244.365C243.524 244.468 243.591 244.563 243.634 244.65V241.57H244.564V249H243.859L243.759 247.94C243.726 248.04 243.672 248.157 243.599 248.29C243.526 248.42 243.422 248.548 243.289 248.675C243.156 248.798 242.984 248.9 242.774 248.98C242.567 249.06 242.312 249.1 242.009 249.1ZM242.174 248.39C242.697 248.39 243.071 248.232 243.294 247.915C243.521 247.595 243.634 247.073 243.634 246.35C243.631 245.947 243.579 245.603 243.479 245.32C243.382 245.037 243.229 244.822 243.019 244.675C242.812 244.525 242.537 244.45 242.194 244.45C241.767 244.45 241.421 244.602 241.154 244.905C240.887 245.208 240.754 245.69 240.754 246.35C240.754 246.997 240.874 247.498 241.114 247.855C241.357 248.212 241.711 248.39 242.174 248.39ZM245.876 249V247.82H246.976V249H245.876ZM250.048 242.62V241.77H255.518V242.62H253.313V249H252.383V242.62H250.048ZM256.521 249V241.57H257.421V244.59C257.508 244.447 257.624 244.313 257.771 244.19C257.918 244.063 258.096 243.962 258.306 243.885C258.516 243.805 258.759 243.765 259.036 243.765C259.373 243.765 259.678 243.828 259.951 243.955C260.224 244.078 260.441 244.255 260.601 244.485C260.761 244.715 260.841 244.988 260.841 245.305V249H259.916V245.49C259.916 245.18 259.809 244.942 259.596 244.775C259.386 244.605 259.111 244.52 258.771 244.52C258.541 244.52 258.324 244.558 258.121 244.635C257.918 244.708 257.753 244.822 257.626 244.975C257.503 245.125 257.441 245.317 257.441 245.55V249H256.521ZM262.943 246.63C262.943 246.957 262.996 247.253 263.103 247.52C263.213 247.783 263.378 247.993 263.598 248.15C263.821 248.307 264.099 248.385 264.433 248.385C264.763 248.385 265.046 248.308 265.283 248.155C265.523 248.002 265.676 247.78 265.743 247.49H266.618C266.554 247.84 266.414 248.135 266.198 248.375C265.981 248.615 265.719 248.797 265.413 248.92C265.106 249.04 264.786 249.1 264.453 249.1C263.969 249.1 263.544 248.995 263.178 248.785C262.811 248.575 262.524 248.273 262.318 247.88C262.111 247.487 262.008 247.015 262.008 246.465C262.008 245.922 262.101 245.445 262.288 245.035C262.474 244.625 262.744 244.305 263.098 244.075C263.454 243.845 263.883 243.73 264.383 243.73C264.869 243.73 265.281 243.835 265.618 244.045C265.954 244.255 266.209 244.552 266.383 244.935C266.559 245.315 266.648 245.767 266.648 246.29V246.63H262.943ZM262.948 246.005H265.758C265.758 245.708 265.708 245.442 265.608 245.205C265.508 244.965 265.354 244.777 265.148 244.64C264.944 244.5 264.688 244.43 264.378 244.43C264.054 244.43 263.786 244.508 263.573 244.665C263.363 244.818 263.204 245.017 263.098 245.26C262.994 245.5 262.944 245.748 262.948 246.005ZM94.46 258.505H93.295V261.72C93.295 261.903 93.3133 262.038 93.35 262.125C93.39 262.208 93.455 262.262 93.545 262.285C93.6383 262.308 93.765 262.32 93.925 262.32H94.49V262.94C94.4267 262.963 94.33 262.983 94.2 263C94.0733 263.017 93.915 263.025 93.725 263.025C93.3683 263.025 93.0917 262.977 92.895 262.88C92.6983 262.783 92.56 262.64 92.48 262.45C92.4033 262.26 92.365 262.027 92.365 261.75V258.505H91.525V257.83H92.39L92.615 256.325H93.295V257.825H94.46V258.505ZM97.7067 263.1C97.2301 263.1 96.8134 262.998 96.4567 262.795C96.1001 262.588 95.8234 262.287 95.6267 261.89C95.4301 261.493 95.3317 261.008 95.3317 260.435C95.3317 259.895 95.4234 259.422 95.6067 259.015C95.7901 258.608 96.0584 258.293 96.4117 258.07C96.7684 257.843 97.2001 257.73 97.7067 257.73C98.1834 257.73 98.5967 257.835 98.9467 258.045C99.3001 258.252 99.5734 258.557 99.7667 258.96C99.9601 259.363 100.057 259.855 100.057 260.435C100.057 260.962 99.9667 261.425 99.7867 261.825C99.6101 262.225 99.3467 262.538 98.9967 262.765C98.6501 262.988 98.2201 263.1 97.7067 263.1ZM97.7067 262.37C98.0167 262.37 98.2784 262.292 98.4917 262.135C98.7051 261.978 98.8667 261.753 98.9767 261.46C99.0867 261.167 99.1417 260.818 99.1417 260.415C99.1417 260.045 99.0934 259.713 98.9967 259.42C98.9001 259.123 98.7451 258.888 98.5317 258.715C98.3217 258.542 98.0467 258.455 97.7067 258.455C97.3934 258.455 97.1284 258.533 96.9117 258.69C96.6951 258.843 96.5301 259.067 96.4167 259.36C96.3067 259.653 96.2517 260.005 96.2517 260.415C96.2517 260.778 96.3017 261.108 96.4017 261.405C96.5017 261.702 96.6584 261.937 96.8717 262.11C97.0851 262.283 97.3634 262.37 97.7067 262.37ZM103.728 258.505H102.563V261.72C102.563 261.903 102.581 262.038 102.618 262.125C102.658 262.208 102.723 262.262 102.813 262.285C102.906 262.308 103.033 262.32 103.193 262.32H103.758V262.94C103.694 262.963 103.598 262.983 103.468 263C103.341 263.017 103.183 263.025 102.993 263.025C102.636 263.025 102.359 262.977 102.163 262.88C101.966 262.783 101.828 262.64 101.748 262.45C101.671 262.26 101.633 262.027 101.633 261.75V258.505H100.793V257.83H101.658L101.883 256.325H102.563V257.825H103.728V258.505ZM106.447 263.1C106.114 263.1 105.819 263.042 105.562 262.925C105.305 262.805 105.104 262.633 104.957 262.41C104.814 262.187 104.742 261.917 104.742 261.6C104.742 261.027 104.942 260.6 105.342 260.32C105.742 260.04 106.384 259.89 107.267 259.87L108.192 259.845V259.44C108.192 259.123 108.097 258.873 107.907 258.69C107.717 258.503 107.422 258.41 107.022 258.41C106.725 258.413 106.464 258.483 106.237 258.62C106.014 258.757 105.869 258.98 105.802 259.29H104.987C105.007 258.953 105.102 258.67 105.272 258.44C105.442 258.207 105.679 258.03 105.982 257.91C106.289 257.79 106.65 257.73 107.067 257.73C107.517 257.73 107.89 257.793 108.187 257.92C108.487 258.047 108.71 258.233 108.857 258.48C109.007 258.727 109.082 259.03 109.082 259.39V263H108.292L108.227 262.03C108.027 262.433 107.772 262.713 107.462 262.87C107.155 263.023 106.817 263.1 106.447 263.1ZM106.727 262.435C106.9 262.435 107.072 262.403 107.242 262.34C107.415 262.277 107.574 262.192 107.717 262.085C107.86 261.975 107.974 261.853 108.057 261.72C108.144 261.583 108.189 261.443 108.192 261.3V260.415L107.422 260.43C107.029 260.437 106.699 260.477 106.432 260.55C106.169 260.623 105.97 260.738 105.837 260.895C105.707 261.052 105.642 261.257 105.642 261.51C105.642 261.8 105.742 262.027 105.942 262.19C106.145 262.353 106.407 262.435 106.727 262.435ZM111.966 263.065C111.686 263.065 111.46 263.027 111.286 262.95C111.116 262.873 110.985 262.77 110.891 262.64C110.801 262.51 110.74 262.362 110.706 262.195C110.676 262.025 110.661 261.85 110.661 261.67V255.57H111.571V261.58C111.571 261.84 111.621 262.035 111.721 262.165C111.825 262.295 111.968 262.367 112.151 262.38L112.431 262.385V262.985C112.355 263.008 112.275 263.027 112.191 263.04C112.108 263.057 112.033 263.065 111.966 263.065ZM117.375 263.1C117.041 263.1 116.746 263.042 116.49 262.925C116.233 262.805 116.031 262.633 115.885 262.41C115.741 262.187 115.67 261.917 115.67 261.6C115.67 261.027 115.87 260.6 116.27 260.32C116.67 260.04 117.311 259.89 118.195 259.87L119.12 259.845V259.44C119.12 259.123 119.025 258.873 118.835 258.69C118.645 258.503 118.35 258.41 117.95 258.41C117.653 258.413 117.391 258.483 117.165 258.62C116.941 258.757 116.796 258.98 116.73 259.29H115.915C115.935 258.953 116.03 258.67 116.2 258.44C116.37 258.207 116.606 258.03 116.91 257.91C117.216 257.79 117.578 257.73 117.995 257.73C118.445 257.73 118.818 257.793 119.115 257.92C119.415 258.047 119.638 258.233 119.785 258.48C119.935 258.727 120.01 259.03 120.01 259.39V263H119.22L119.155 262.03C118.955 262.433 118.7 262.713 118.39 262.87C118.083 263.023 117.745 263.1 117.375 263.1ZM117.655 262.435C117.828 262.435 118 262.403 118.17 262.34C118.343 262.277 118.501 262.192 118.645 262.085C118.788 261.975 118.901 261.853 118.985 261.72C119.071 261.583 119.116 261.443 119.12 261.3V260.415L118.35 260.43C117.956 260.437 117.626 260.477 117.36 260.55C117.096 260.623 116.898 260.738 116.765 260.895C116.635 261.052 116.57 261.257 116.57 261.51C116.57 261.8 116.67 262.027 116.87 262.19C117.073 262.353 117.335 262.435 117.655 262.435ZM121.589 263V257.83H122.479V258.58C122.623 258.353 122.819 258.155 123.069 257.985C123.319 257.815 123.644 257.73 124.044 257.73C124.231 257.73 124.421 257.762 124.614 257.825C124.811 257.888 124.991 257.983 125.154 258.11C125.318 258.237 125.444 258.392 125.534 258.575C125.694 258.322 125.911 258.118 126.184 257.965C126.458 257.808 126.766 257.73 127.109 257.73C127.289 257.73 127.478 257.758 127.674 257.815C127.871 257.868 128.053 257.965 128.219 258.105C128.389 258.242 128.528 258.433 128.634 258.68C128.741 258.923 128.794 259.237 128.794 259.62V263H127.864V259.71C127.864 259.397 127.814 259.155 127.714 258.985C127.614 258.812 127.483 258.69 127.319 258.62C127.159 258.55 126.988 258.515 126.804 258.515C126.644 258.515 126.474 258.547 126.294 258.61C126.114 258.673 125.961 258.78 125.834 258.93C125.708 259.08 125.644 259.285 125.644 259.545V263H124.724V259.44C124.724 259.237 124.669 259.067 124.559 258.93C124.453 258.793 124.318 258.69 124.154 258.62C123.994 258.55 123.834 258.515 123.674 258.515C123.498 258.515 123.319 258.55 123.139 258.62C122.963 258.69 122.813 258.802 122.689 258.955C122.569 259.105 122.509 259.302 122.509 259.545V263H121.589ZM132.297 263.1C131.82 263.1 131.403 262.998 131.047 262.795C130.69 262.588 130.413 262.287 130.217 261.89C130.02 261.493 129.922 261.008 129.922 260.435C129.922 259.895 130.013 259.422 130.197 259.015C130.38 258.608 130.648 258.293 131.002 258.07C131.358 257.843 131.79 257.73 132.297 257.73C132.773 257.73 133.187 257.835 133.537 258.045C133.89 258.252 134.163 258.557 134.357 258.96C134.55 259.363 134.647 259.855 134.647 260.435C134.647 260.962 134.557 261.425 134.377 261.825C134.2 262.225 133.937 262.538 133.587 262.765C133.24 262.988 132.81 263.1 132.297 263.1ZM132.297 262.37C132.607 262.37 132.868 262.292 133.082 262.135C133.295 261.978 133.457 261.753 133.567 261.46C133.677 261.167 133.732 260.818 133.732 260.415C133.732 260.045 133.683 259.713 133.587 259.42C133.49 259.123 133.335 258.888 133.122 258.715C132.912 258.542 132.637 258.455 132.297 258.455C131.983 258.455 131.718 258.533 131.502 258.69C131.285 258.843 131.12 259.067 131.007 259.36C130.897 259.653 130.842 260.005 130.842 260.415C130.842 260.778 130.892 261.108 130.992 261.405C131.092 261.702 131.248 261.937 131.462 262.11C131.675 262.283 131.953 262.37 132.297 262.37ZM137.669 263.1C137.399 263.097 137.144 263.058 136.904 262.985C136.667 262.908 136.457 262.797 136.274 262.65C136.091 262.503 135.946 262.322 135.839 262.105C135.736 261.885 135.684 261.63 135.684 261.34V257.83H136.609V261.245C136.609 261.582 136.712 261.855 136.919 262.065C137.129 262.275 137.444 262.38 137.864 262.38C138.244 262.38 138.549 262.282 138.779 262.085C139.012 261.885 139.129 261.588 139.129 261.195V257.83H140.049V263H139.314L139.219 262.01C139.156 262.27 139.047 262.48 138.894 262.64C138.744 262.8 138.562 262.918 138.349 262.995C138.139 263.068 137.912 263.103 137.669 263.1ZM141.56 263V257.83H142.455V258.58C142.538 258.437 142.653 258.302 142.8 258.175C142.95 258.048 143.13 257.947 143.34 257.87C143.553 257.793 143.798 257.755 144.075 257.755C144.402 257.755 144.702 257.82 144.975 257.95C145.252 258.08 145.472 258.283 145.635 258.56C145.802 258.833 145.885 259.187 145.885 259.62V263H144.96V259.71C144.96 259.307 144.853 259.008 144.64 258.815C144.43 258.618 144.157 258.52 143.82 258.52C143.587 258.52 143.368 258.558 143.165 258.635C142.962 258.708 142.797 258.822 142.67 258.975C142.543 259.125 142.48 259.315 142.48 259.545V263H141.56ZM149.714 258.505H148.549V261.72C148.549 261.903 148.567 262.038 148.604 262.125C148.644 262.208 148.709 262.262 148.799 262.285C148.892 262.308 149.019 262.32 149.179 262.32H149.744V262.94C149.681 262.963 149.584 262.983 149.454 263C149.327 263.017 149.169 263.025 148.979 263.025C148.622 263.025 148.346 262.977 148.149 262.88C147.952 262.783 147.814 262.64 147.734 262.45C147.657 262.26 147.619 262.027 147.619 261.75V258.505H146.779V257.83H147.644L147.869 256.325H148.549V257.825H149.714V258.505ZM155.085 263.1C154.415 263.1 153.883 262.87 153.49 262.41C153.097 261.95 152.9 261.278 152.9 260.395C152.9 259.858 152.978 259.39 153.135 258.99C153.295 258.59 153.532 258.28 153.845 258.06C154.158 257.84 154.548 257.73 155.015 257.73C155.262 257.73 155.48 257.762 155.67 257.825C155.863 257.888 156.03 257.968 156.17 258.065C156.31 258.162 156.423 258.262 156.51 258.365C156.6 258.468 156.667 258.563 156.71 258.65V255.57H157.64V263H156.935L156.835 261.94C156.802 262.04 156.748 262.157 156.675 262.29C156.602 262.42 156.498 262.548 156.365 262.675C156.232 262.798 156.06 262.9 155.85 262.98C155.643 263.06 155.388 263.1 155.085 263.1ZM155.25 262.39C155.773 262.39 156.147 262.232 156.37 261.915C156.597 261.595 156.71 261.073 156.71 260.35C156.707 259.947 156.655 259.603 156.555 259.32C156.458 259.037 156.305 258.822 156.095 258.675C155.888 258.525 155.613 258.45 155.27 258.45C154.843 258.45 154.497 258.602 154.23 258.905C153.963 259.208 153.83 259.69 153.83 260.35C153.83 260.997 153.95 261.498 154.19 261.855C154.433 262.212 154.787 262.39 155.25 262.39ZM159.827 260.63C159.827 260.957 159.881 261.253 159.987 261.52C160.097 261.783 160.262 261.993 160.482 262.15C160.706 262.307 160.984 262.385 161.317 262.385C161.647 262.385 161.931 262.308 162.167 262.155C162.407 262.002 162.561 261.78 162.627 261.49H163.502C163.439 261.84 163.299 262.135 163.082 262.375C162.866 262.615 162.604 262.797 162.297 262.92C161.991 263.04 161.671 263.1 161.337 263.1C160.854 263.1 160.429 262.995 160.062 262.785C159.696 262.575 159.409 262.273 159.202 261.88C158.996 261.487 158.892 261.015 158.892 260.465C158.892 259.922 158.986 259.445 159.172 259.035C159.359 258.625 159.629 258.305 159.982 258.075C160.339 257.845 160.767 257.73 161.267 257.73C161.754 257.73 162.166 257.835 162.502 258.045C162.839 258.255 163.094 258.552 163.267 258.935C163.444 259.315 163.532 259.767 163.532 260.29V260.63H159.827ZM159.832 260.005H162.642C162.642 259.708 162.592 259.442 162.492 259.205C162.392 258.965 162.239 258.777 162.032 258.64C161.829 258.5 161.572 258.43 161.262 258.43C160.939 258.43 160.671 258.508 160.457 258.665C160.247 258.818 160.089 259.017 159.982 259.26C159.879 259.5 159.829 259.748 159.832 260.005ZM166.667 263.1C165.997 263.1 165.465 262.87 165.072 262.41C164.679 261.95 164.482 261.278 164.482 260.395C164.482 259.858 164.56 259.39 164.717 258.99C164.877 258.59 165.114 258.28 165.427 258.06C165.74 257.84 166.13 257.73 166.597 257.73C166.844 257.73 167.062 257.762 167.252 257.825C167.445 257.888 167.612 257.968 167.752 258.065C167.892 258.162 168.005 258.262 168.092 258.365C168.182 258.468 168.249 258.563 168.292 258.65V255.57H169.222V263H168.517L168.417 261.94C168.384 262.04 168.33 262.157 168.257 262.29C168.184 262.42 168.08 262.548 167.947 262.675C167.814 262.798 167.642 262.9 167.432 262.98C167.225 263.06 166.97 263.1 166.667 263.1ZM166.832 262.39C167.355 262.39 167.729 262.232 167.952 261.915C168.179 261.595 168.292 261.073 168.292 260.35C168.289 259.947 168.237 259.603 168.137 259.32C168.04 259.037 167.887 258.822 167.677 258.675C167.47 258.525 167.195 258.45 166.852 258.45C166.425 258.45 166.079 258.602 165.812 258.905C165.545 259.208 165.412 259.69 165.412 260.35C165.412 260.997 165.532 261.498 165.772 261.855C166.015 262.212 166.369 262.39 166.832 262.39ZM172.649 263.1C172.379 263.097 172.124 263.058 171.884 262.985C171.648 262.908 171.438 262.797 171.254 262.65C171.071 262.503 170.926 262.322 170.819 262.105C170.716 261.885 170.664 261.63 170.664 261.34V257.83H171.589V261.245C171.589 261.582 171.693 261.855 171.899 262.065C172.109 262.275 172.424 262.38 172.844 262.38C173.224 262.38 173.529 262.282 173.759 262.085C173.993 261.885 174.109 261.588 174.109 261.195V257.83H175.029V263H174.294L174.199 262.01C174.136 262.27 174.028 262.48 173.874 262.64C173.724 262.8 173.543 262.918 173.329 262.995C173.119 263.068 172.893 263.103 172.649 263.1ZM178.532 257.73C178.902 257.73 179.235 257.802 179.532 257.945C179.829 258.085 180.07 258.285 180.257 258.545C180.447 258.805 180.565 259.112 180.612 259.465H179.792C179.762 259.285 179.692 259.12 179.582 258.97C179.475 258.82 179.334 258.7 179.157 258.61C178.98 258.52 178.774 258.475 178.537 258.475C178.094 258.475 177.734 258.635 177.457 258.955C177.18 259.275 177.042 259.765 177.042 260.425C177.042 261.022 177.169 261.5 177.422 261.86C177.679 262.217 178.055 262.395 178.552 262.395C178.789 262.395 178.994 262.35 179.167 262.26C179.344 262.167 179.485 262.045 179.592 261.895C179.699 261.742 179.767 261.578 179.797 261.405H180.602C180.559 261.752 180.442 262.052 180.252 262.305C180.062 262.558 179.819 262.755 179.522 262.895C179.229 263.032 178.899 263.1 178.532 263.1C178.069 263.1 177.657 262.998 177.297 262.795C176.94 262.592 176.66 262.292 176.457 261.895C176.254 261.498 176.152 261.012 176.152 260.435C176.152 259.895 176.244 259.423 176.427 259.02C176.614 258.613 176.884 258.297 177.237 258.07C177.594 257.843 178.025 257.73 178.532 257.73ZM184.323 258.505H183.158V261.72C183.158 261.903 183.177 262.038 183.213 262.125C183.253 262.208 183.318 262.262 183.408 262.285C183.502 262.308 183.628 262.32 183.788 262.32H184.353V262.94C184.29 262.963 184.193 262.983 184.063 263C183.937 263.017 183.778 263.025 183.588 263.025C183.232 263.025 182.955 262.977 182.758 262.88C182.562 262.783 182.423 262.64 182.343 262.45C182.267 262.26 182.228 262.027 182.228 261.75V258.505H181.388V257.83H182.253L182.478 256.325H183.158V257.825H184.323V258.505ZM186.175 260.63C186.175 260.957 186.228 261.253 186.335 261.52C186.445 261.783 186.61 261.993 186.83 262.15C187.053 262.307 187.332 262.385 187.665 262.385C187.995 262.385 188.278 262.308 188.515 262.155C188.755 262.002 188.908 261.78 188.975 261.49H189.85C189.787 261.84 189.647 262.135 189.43 262.375C189.213 262.615 188.952 262.797 188.645 262.92C188.338 263.04 188.018 263.1 187.685 263.1C187.202 263.1 186.777 262.995 186.41 262.785C186.043 262.575 185.757 262.273 185.55 261.88C185.343 261.487 185.24 261.015 185.24 260.465C185.24 259.922 185.333 259.445 185.52 259.035C185.707 258.625 185.977 258.305 186.33 258.075C186.687 257.845 187.115 257.73 187.615 257.73C188.102 257.73 188.513 257.835 188.85 258.045C189.187 258.255 189.442 258.552 189.615 258.935C189.792 259.315 189.88 259.767 189.88 260.29V260.63H186.175ZM186.18 260.005H188.99C188.99 259.708 188.94 259.442 188.84 259.205C188.74 258.965 188.587 258.777 188.38 258.64C188.177 258.5 187.92 258.43 187.61 258.43C187.287 258.43 187.018 258.508 186.805 258.665C186.595 258.818 186.437 259.017 186.33 259.26C186.227 259.5 186.177 259.748 186.18 260.005ZM193.015 263.1C192.345 263.1 191.813 262.87 191.42 262.41C191.026 261.95 190.83 261.278 190.83 260.395C190.83 259.858 190.908 259.39 191.065 258.99C191.225 258.59 191.461 258.28 191.775 258.06C192.088 257.84 192.478 257.73 192.945 257.73C193.191 257.73 193.41 257.762 193.6 257.825C193.793 257.888 193.96 257.968 194.1 258.065C194.24 258.162 194.353 258.262 194.44 258.365C194.53 258.468 194.596 258.563 194.64 258.65V255.57H195.57V263H194.865L194.765 261.94C194.731 262.04 194.678 262.157 194.605 262.29C194.531 262.42 194.428 262.548 194.295 262.675C194.161 262.798 193.99 262.9 193.78 262.98C193.573 263.06 193.318 263.1 193.015 263.1ZM193.18 262.39C193.703 262.39 194.076 262.232 194.3 261.915C194.526 261.595 194.64 261.073 194.64 260.35C194.636 259.947 194.585 259.603 194.485 259.32C194.388 259.037 194.235 258.822 194.025 258.675C193.818 258.525 193.543 258.45 193.2 258.45C192.773 258.45 192.426 258.602 192.16 258.905C191.893 259.208 191.76 259.69 191.76 260.35C191.76 260.997 191.88 261.498 192.12 261.855C192.363 262.212 192.716 262.39 193.18 262.39ZM202.322 257.83V258.505H201.067V263H200.137V258.505H199.047V257.83H200.137V257.03C200.137 256.62 200.242 256.308 200.452 256.095C200.662 255.878 200.975 255.77 201.392 255.77H202.367L202.372 256.425H201.597C201.387 256.425 201.243 256.482 201.167 256.595C201.09 256.708 201.052 256.88 201.052 257.11V257.83H202.322ZM203.464 263V257.83H204.344V258.825C204.431 258.578 204.553 258.375 204.709 258.215C204.866 258.052 205.044 257.93 205.244 257.85C205.448 257.77 205.658 257.73 205.874 257.73C205.951 257.73 206.026 257.735 206.099 257.745C206.173 257.755 206.229 257.772 206.269 257.795V258.69C206.219 258.667 206.154 258.652 206.074 258.645C205.998 258.635 205.933 258.63 205.879 258.63C205.673 258.617 205.479 258.63 205.299 258.67C205.119 258.707 204.961 258.772 204.824 258.865C204.688 258.958 204.579 259.082 204.499 259.235C204.423 259.385 204.384 259.568 204.384 259.785V263H203.464ZM209.279 263.1C208.802 263.1 208.386 262.998 208.029 262.795C207.672 262.588 207.396 262.287 207.199 261.89C207.002 261.493 206.904 261.008 206.904 260.435C206.904 259.895 206.996 259.422 207.179 259.015C207.362 258.608 207.631 258.293 207.984 258.07C208.341 257.843 208.772 257.73 209.279 257.73C209.756 257.73 210.169 257.835 210.519 258.045C210.872 258.252 211.146 258.557 211.339 258.96C211.532 259.363 211.629 259.855 211.629 260.435C211.629 260.962 211.539 261.425 211.359 261.825C211.182 262.225 210.919 262.538 210.569 262.765C210.222 262.988 209.792 263.1 209.279 263.1ZM209.279 262.37C209.589 262.37 209.851 262.292 210.064 262.135C210.277 261.978 210.439 261.753 210.549 261.46C210.659 261.167 210.714 260.818 210.714 260.415C210.714 260.045 210.666 259.713 210.569 259.42C210.472 259.123 210.317 258.888 210.104 258.715C209.894 258.542 209.619 258.455 209.279 258.455C208.966 258.455 208.701 258.533 208.484 258.69C208.267 258.843 208.102 259.067 207.989 259.36C207.879 259.653 207.824 260.005 207.824 260.415C207.824 260.778 207.874 261.108 207.974 261.405C208.074 261.702 208.231 261.937 208.444 262.11C208.657 262.283 208.936 262.37 209.279 262.37ZM212.839 263V257.83H213.729V258.58C213.873 258.353 214.069 258.155 214.319 257.985C214.569 257.815 214.894 257.73 215.294 257.73C215.481 257.73 215.671 257.762 215.864 257.825C216.061 257.888 216.241 257.983 216.404 258.11C216.568 258.237 216.694 258.392 216.784 258.575C216.944 258.322 217.161 258.118 217.434 257.965C217.708 257.808 218.016 257.73 218.359 257.73C218.539 257.73 218.728 257.758 218.924 257.815C219.121 257.868 219.303 257.965 219.469 258.105C219.639 258.242 219.778 258.433 219.884 258.68C219.991 258.923 220.044 259.237 220.044 259.62V263H219.114V259.71C219.114 259.397 219.064 259.155 218.964 258.985C218.864 258.812 218.733 258.69 218.569 258.62C218.409 258.55 218.238 258.515 218.054 258.515C217.894 258.515 217.724 258.547 217.544 258.61C217.364 258.673 217.211 258.78 217.084 258.93C216.958 259.08 216.894 259.285 216.894 259.545V263H215.974V259.44C215.974 259.237 215.919 259.067 215.809 258.93C215.703 258.793 215.568 258.69 215.404 258.62C215.244 258.55 215.084 258.515 214.924 258.515C214.748 258.515 214.569 258.55 214.389 258.62C214.213 258.69 214.063 258.802 213.939 258.955C213.819 259.105 213.759 259.302 213.759 259.545V263H212.839ZM224.238 264.65C223.935 264.65 223.726 264.628 223.613 264.585C223.5 264.542 223.443 264.52 223.443 264.52V263.92L223.968 263.93C224.161 263.937 224.321 263.923 224.448 263.89C224.575 263.857 224.676 263.812 224.753 263.755C224.83 263.698 224.888 263.635 224.928 263.565C224.971 263.495 225.006 263.428 225.033 263.365L225.213 262.875L223.193 257.83H224.128L225.653 261.82L227.168 257.83H228.073L225.893 263.39C225.76 263.717 225.61 263.972 225.443 264.155C225.28 264.338 225.096 264.467 224.893 264.54C224.693 264.613 224.475 264.65 224.238 264.65ZM230.929 263.1C230.453 263.1 230.036 262.998 229.679 262.795C229.323 262.588 229.046 262.287 228.849 261.89C228.653 261.493 228.554 261.008 228.554 260.435C228.554 259.895 228.646 259.422 228.829 259.015C229.013 258.608 229.281 258.293 229.634 258.07C229.991 257.843 230.423 257.73 230.929 257.73C231.406 257.73 231.819 257.835 232.169 258.045C232.523 258.252 232.796 258.557 232.989 258.96C233.183 259.363 233.279 259.855 233.279 260.435C233.279 260.962 233.189 261.425 233.009 261.825C232.833 262.225 232.569 262.538 232.219 262.765C231.873 262.988 231.443 263.1 230.929 263.1ZM230.929 262.37C231.239 262.37 231.501 262.292 231.714 262.135C231.928 261.978 232.089 261.753 232.199 261.46C232.309 261.167 232.364 260.818 232.364 260.415C232.364 260.045 232.316 259.713 232.219 259.42C232.123 259.123 231.968 258.888 231.754 258.715C231.544 258.542 231.269 258.455 230.929 258.455C230.616 258.455 230.351 258.533 230.134 258.69C229.918 258.843 229.753 259.067 229.639 259.36C229.529 259.653 229.474 260.005 229.474 260.415C229.474 260.778 229.524 261.108 229.624 261.405C229.724 261.702 229.881 261.937 230.094 262.11C230.308 262.283 230.586 262.37 230.929 262.37ZM236.302 263.1C236.032 263.097 235.777 263.058 235.537 262.985C235.3 262.908 235.09 262.797 234.907 262.65C234.723 262.503 234.578 262.322 234.472 262.105C234.368 261.885 234.317 261.63 234.317 261.34V257.83H235.242V261.245C235.242 261.582 235.345 261.855 235.552 262.065C235.762 262.275 236.077 262.38 236.497 262.38C236.877 262.38 237.182 262.282 237.412 262.085C237.645 261.885 237.762 261.588 237.762 261.195V257.83H238.682V263H237.947L237.852 262.01C237.788 262.27 237.68 262.48 237.527 262.64C237.377 262.8 237.195 262.918 236.982 262.995C236.772 263.068 236.545 263.103 236.302 263.1ZM240.193 263V257.83H241.073V258.825C241.159 258.578 241.281 258.375 241.438 258.215C241.594 258.052 241.773 257.93 241.973 257.85C242.176 257.77 242.386 257.73 242.603 257.73C242.679 257.73 242.754 257.735 242.828 257.745C242.901 257.755 242.958 257.772 242.998 257.795V258.69C242.948 258.667 242.883 258.652 242.803 258.645C242.726 258.635 242.661 258.63 242.608 258.63C242.401 258.617 242.208 258.63 242.028 258.67C241.848 258.707 241.689 258.772 241.553 258.865C241.416 258.958 241.308 259.082 241.228 259.235C241.151 259.385 241.113 259.568 241.113 259.785V263H240.193ZM93.195 277.1C92.8617 277.1 92.5667 277.042 92.31 276.925C92.0533 276.805 91.8517 276.633 91.705 276.41C91.5617 276.187 91.49 275.917 91.49 275.6C91.49 275.027 91.69 274.6 92.09 274.32C92.49 274.04 93.1317 273.89 94.015 273.87L94.94 273.845V273.44C94.94 273.123 94.845 272.873 94.655 272.69C94.465 272.503 94.17 272.41 93.77 272.41C93.4733 272.413 93.2117 272.483 92.985 272.62C92.7617 272.757 92.6167 272.98 92.55 273.29H91.735C91.755 272.953 91.85 272.67 92.02 272.44C92.19 272.207 92.4267 272.03 92.73 271.91C93.0367 271.79 93.3983 271.73 93.815 271.73C94.265 271.73 94.6383 271.793 94.935 271.92C95.235 272.047 95.4583 272.233 95.605 272.48C95.755 272.727 95.83 273.03 95.83 273.39V277H95.04L94.975 276.03C94.775 276.433 94.52 276.713 94.21 276.87C93.9033 277.023 93.565 277.1 93.195 277.1ZM93.475 276.435C93.6483 276.435 93.82 276.403 93.99 276.34C94.1633 276.277 94.3217 276.192 94.465 276.085C94.6083 275.975 94.7217 275.853 94.805 275.72C94.8917 275.583 94.9367 275.443 94.94 275.3V274.415L94.17 274.43C93.7767 274.437 93.4467 274.477 93.18 274.55C92.9167 274.623 92.7183 274.738 92.585 274.895C92.455 275.052 92.39 275.257 92.39 275.51C92.39 275.8 92.49 276.027 92.69 276.19C92.8933 276.353 93.155 276.435 93.475 276.435ZM99.4695 271.73C99.8395 271.73 100.173 271.802 100.47 271.945C100.766 272.085 101.008 272.285 101.195 272.545C101.385 272.805 101.503 273.112 101.55 273.465H100.73C100.7 273.285 100.63 273.12 100.52 272.97C100.413 272.82 100.271 272.7 100.095 272.61C99.9179 272.52 99.7112 272.475 99.4745 272.475C99.0312 272.475 98.6712 272.635 98.3945 272.955C98.1179 273.275 97.9795 273.765 97.9795 274.425C97.9795 275.022 98.1062 275.5 98.3595 275.86C98.6162 276.217 98.9929 276.395 99.4895 276.395C99.7262 276.395 99.9312 276.35 100.105 276.26C100.281 276.167 100.423 276.045 100.53 275.895C100.636 275.742 100.705 275.578 100.735 275.405H101.54C101.496 275.752 101.38 276.052 101.19 276.305C101 276.558 100.756 276.755 100.46 276.895C100.166 277.032 99.8362 277.1 99.4695 277.1C99.0062 277.1 98.5945 276.998 98.2345 276.795C97.8779 276.592 97.5979 276.292 97.3945 275.895C97.1912 275.498 97.0895 275.012 97.0895 274.435C97.0895 273.895 97.1812 273.423 97.3645 273.02C97.5512 272.613 97.8212 272.297 98.1745 272.07C98.5312 271.843 98.9629 271.73 99.4695 271.73ZM104.86 271.73C105.23 271.73 105.563 271.802 105.86 271.945C106.157 272.085 106.398 272.285 106.585 272.545C106.775 272.805 106.893 273.112 106.94 273.465H106.12C106.09 273.285 106.02 273.12 105.91 272.97C105.803 272.82 105.662 272.7 105.485 272.61C105.308 272.52 105.102 272.475 104.865 272.475C104.422 272.475 104.062 272.635 103.785 272.955C103.508 273.275 103.37 273.765 103.37 274.425C103.37 275.022 103.497 275.5 103.75 275.86C104.007 276.217 104.383 276.395 104.88 276.395C105.117 276.395 105.322 276.35 105.495 276.26C105.672 276.167 105.813 276.045 105.92 275.895C106.027 275.742 106.095 275.578 106.125 275.405H106.93C106.887 275.752 106.77 276.052 106.58 276.305C106.39 276.558 106.147 276.755 105.85 276.895C105.557 277.032 105.227 277.1 104.86 277.1C104.397 277.1 103.985 276.998 103.625 276.795C103.268 276.592 102.988 276.292 102.785 275.895C102.582 275.498 102.48 275.012 102.48 274.435C102.48 273.895 102.572 273.423 102.755 273.02C102.942 272.613 103.212 272.297 103.565 272.07C103.922 271.843 104.353 271.73 104.86 271.73ZM110.246 277.1C109.769 277.1 109.352 276.998 108.996 276.795C108.639 276.588 108.362 276.287 108.166 275.89C107.969 275.493 107.871 275.008 107.871 274.435C107.871 273.895 107.962 273.422 108.146 273.015C108.329 272.608 108.597 272.293 108.951 272.07C109.307 271.843 109.739 271.73 110.246 271.73C110.722 271.73 111.136 271.835 111.486 272.045C111.839 272.252 112.112 272.557 112.306 272.96C112.499 273.363 112.596 273.855 112.596 274.435C112.596 274.962 112.506 275.425 112.326 275.825C112.149 276.225 111.886 276.538 111.536 276.765C111.189 276.988 110.759 277.1 110.246 277.1ZM110.246 276.37C110.556 276.37 110.817 276.292 111.031 276.135C111.244 275.978 111.406 275.753 111.516 275.46C111.626 275.167 111.681 274.818 111.681 274.415C111.681 274.045 111.632 273.713 111.536 273.42C111.439 273.123 111.284 272.888 111.071 272.715C110.861 272.542 110.586 272.455 110.246 272.455C109.932 272.455 109.667 272.533 109.451 272.69C109.234 272.843 109.069 273.067 108.956 273.36C108.846 273.653 108.791 274.005 108.791 274.415C108.791 274.778 108.841 275.108 108.941 275.405C109.041 275.702 109.197 275.937 109.411 276.11C109.624 276.283 109.902 276.37 110.246 276.37ZM115.618 277.1C115.348 277.097 115.093 277.058 114.853 276.985C114.616 276.908 114.406 276.797 114.223 276.65C114.04 276.503 113.895 276.322 113.788 276.105C113.685 275.885 113.633 275.63 113.633 275.34V271.83H114.558V275.245C114.558 275.582 114.661 275.855 114.868 276.065C115.078 276.275 115.393 276.38 115.813 276.38C116.193 276.38 116.498 276.282 116.728 276.085C116.961 275.885 117.078 275.588 117.078 275.195V271.83H117.998V277H117.263L117.168 276.01C117.105 276.27 116.996 276.48 116.843 276.64C116.693 276.8 116.511 276.918 116.298 276.995C116.088 277.068 115.861 277.103 115.618 277.1ZM119.509 277V271.83H120.404V272.58C120.487 272.437 120.602 272.302 120.749 272.175C120.899 272.048 121.079 271.947 121.289 271.87C121.502 271.793 121.747 271.755 122.024 271.755C122.351 271.755 122.651 271.82 122.924 271.95C123.201 272.08 123.421 272.283 123.584 272.56C123.751 272.833 123.834 273.187 123.834 273.62V277H122.909V273.71C122.909 273.307 122.802 273.008 122.589 272.815C122.379 272.618 122.106 272.52 121.769 272.52C121.536 272.52 121.317 272.558 121.114 272.635C120.911 272.708 120.746 272.822 120.619 272.975C120.492 273.125 120.429 273.315 120.429 273.545V277H119.509ZM127.663 272.505H126.498V275.72C126.498 275.903 126.516 276.038 126.553 276.125C126.593 276.208 126.658 276.262 126.748 276.285C126.841 276.308 126.968 276.32 127.128 276.32H127.693V276.94C127.63 276.963 127.533 276.983 127.403 277C127.276 277.017 127.118 277.025 126.928 277.025C126.571 277.025 126.295 276.977 126.098 276.88C125.901 276.783 125.763 276.64 125.683 276.45C125.606 276.26 125.568 276.027 125.568 275.75V272.505H124.728V271.83H125.593L125.818 270.325H126.498V271.825H127.663V272.505ZM132.296 271.83V277H131.401V271.83H132.296ZM132.316 269.775V270.735H131.371V269.775H132.316ZM135.758 277.1C135.398 277.1 135.063 277.045 134.753 276.935C134.447 276.822 134.192 276.647 133.988 276.41C133.785 276.17 133.657 275.865 133.603 275.495H134.443C134.49 275.698 134.573 275.868 134.693 276.005C134.817 276.138 134.97 276.24 135.153 276.31C135.337 276.377 135.537 276.41 135.753 276.41C136.1 276.41 136.38 276.345 136.593 276.215C136.807 276.085 136.913 275.885 136.913 275.615C136.913 275.425 136.857 275.273 136.743 275.16C136.633 275.043 136.462 274.958 136.228 274.905L135.158 274.64C134.742 274.54 134.408 274.383 134.158 274.17C133.908 273.957 133.783 273.658 133.783 273.275C133.78 272.972 133.852 272.705 133.998 272.475C134.145 272.245 134.365 272.063 134.658 271.93C134.952 271.797 135.317 271.73 135.753 271.73C136.313 271.73 136.765 271.857 137.108 272.11C137.455 272.36 137.635 272.728 137.648 273.215H136.833C136.8 272.968 136.688 272.773 136.498 272.63C136.312 272.483 136.06 272.41 135.743 272.41C135.413 272.41 135.145 272.477 134.938 272.61C134.732 272.74 134.628 272.943 134.628 273.22C134.628 273.403 134.702 273.548 134.848 273.655C134.995 273.758 135.212 273.845 135.498 273.915L136.533 274.175C136.773 274.238 136.97 274.322 137.123 274.425C137.28 274.528 137.403 274.643 137.493 274.77C137.587 274.897 137.652 275.03 137.688 275.17C137.728 275.307 137.748 275.438 137.748 275.565C137.748 275.882 137.668 276.155 137.508 276.385C137.352 276.612 137.125 276.788 136.828 276.915C136.535 277.038 136.178 277.1 135.758 277.1ZM146.99 274.245C146.99 274.828 146.895 275.335 146.705 275.765C146.515 276.192 146.206 276.522 145.78 276.755C145.356 276.985 144.795 277.1 144.095 277.1C143.391 277.1 142.828 276.983 142.405 276.75C141.981 276.513 141.675 276.178 141.485 275.745C141.298 275.312 141.205 274.795 141.205 274.195V269.77H142.69V274.305C142.69 274.845 142.82 275.24 143.08 275.49C143.34 275.737 143.678 275.86 144.095 275.86C144.371 275.86 144.616 275.807 144.83 275.7C145.043 275.59 145.21 275.422 145.33 275.195C145.453 274.965 145.515 274.668 145.515 274.305V269.77H146.99V274.245ZM151.156 277.1C150.799 277.1 150.449 277.055 150.106 276.965C149.763 276.875 149.449 276.74 149.166 276.56C148.883 276.38 148.648 276.155 148.461 275.885C148.278 275.615 148.168 275.298 148.131 274.935H149.626C149.676 275.155 149.771 275.34 149.911 275.49C150.051 275.64 150.228 275.755 150.441 275.835C150.654 275.915 150.891 275.955 151.151 275.955C151.418 275.955 151.661 275.922 151.881 275.855C152.101 275.788 152.278 275.688 152.411 275.555C152.544 275.418 152.611 275.248 152.611 275.045C152.611 274.862 152.556 274.712 152.446 274.595C152.339 274.478 152.194 274.383 152.011 274.31C151.828 274.237 151.619 274.177 151.386 274.13L150.136 273.875C149.589 273.772 149.156 273.555 148.836 273.225C148.516 272.892 148.351 272.448 148.341 271.895C148.338 271.442 148.458 271.05 148.701 270.72C148.948 270.387 149.281 270.13 149.701 269.95C150.124 269.77 150.598 269.68 151.121 269.68C151.744 269.68 152.268 269.778 152.691 269.975C153.118 270.168 153.441 270.432 153.661 270.765C153.884 271.095 153.999 271.463 154.006 271.87H152.541C152.514 271.617 152.438 271.415 152.311 271.265C152.184 271.115 152.021 271.007 151.821 270.94C151.624 270.873 151.399 270.84 151.146 270.84C150.953 270.84 150.776 270.862 150.616 270.905C150.459 270.948 150.326 271.01 150.216 271.09C150.106 271.167 150.021 271.258 149.961 271.365C149.901 271.472 149.871 271.592 149.871 271.725C149.871 271.935 149.941 272.105 150.081 272.235C150.221 272.365 150.483 272.472 150.866 272.555L152.106 272.81C152.549 272.897 152.901 273.025 153.161 273.195C153.424 273.365 153.621 273.557 153.751 273.77C153.884 273.983 153.971 274.202 154.011 274.425C154.054 274.645 154.076 274.848 154.076 275.035C154.076 275.425 153.953 275.777 153.706 276.09C153.463 276.4 153.123 276.647 152.686 276.83C152.249 277.01 151.739 277.1 151.156 277.1ZM160.219 277.1C159.352 277.1 158.649 276.927 158.109 276.58C157.569 276.23 157.259 275.692 157.179 274.965L158.699 274.935C158.779 275.265 158.95 275.517 159.214 275.69C159.48 275.86 159.814 275.945 160.214 275.945C160.454 275.945 160.665 275.907 160.849 275.83C161.035 275.75 161.182 275.643 161.289 275.51C161.395 275.373 161.449 275.218 161.449 275.045C161.449 274.778 161.364 274.58 161.194 274.45C161.024 274.317 160.762 274.21 160.409 274.13L159.224 273.875C158.674 273.765 158.232 273.547 157.899 273.22C157.569 272.89 157.4 272.448 157.394 271.895C157.39 271.442 157.512 271.05 157.759 270.72C158.009 270.387 158.347 270.13 158.774 269.95C159.204 269.77 159.685 269.68 160.219 269.68C160.765 269.68 161.237 269.778 161.634 269.975C162.034 270.168 162.34 270.43 162.554 270.76C162.77 271.087 162.875 271.448 162.869 271.845L161.394 271.87C161.347 271.55 161.24 271.298 161.074 271.115C160.907 270.932 160.63 270.84 160.244 270.84C160.044 270.84 159.865 270.862 159.709 270.905C159.552 270.948 159.417 271.01 159.304 271.09C159.19 271.167 159.104 271.258 159.044 271.365C158.987 271.472 158.959 271.592 158.959 271.725C158.959 271.935 159.029 272.102 159.169 272.225C159.312 272.345 159.58 272.457 159.974 272.56L161.139 272.845C161.795 273.002 162.269 273.27 162.559 273.65C162.852 274.03 162.999 274.492 162.999 275.035C162.999 275.452 162.884 275.815 162.654 276.125C162.427 276.435 162.105 276.675 161.689 276.845C161.272 277.015 160.782 277.1 160.219 277.1ZM159.594 268.735H160.859V270.035H159.594V268.735ZM159.569 276.655H160.829V277.955H159.569V276.655ZM165.21 277V271.585H163.92V270.76C164.334 270.76 164.667 270.722 164.92 270.645C165.177 270.565 165.369 270.452 165.495 270.305C165.622 270.155 165.697 269.977 165.72 269.77H166.69V277H165.21ZM170.998 269.67C171.858 269.67 172.536 269.992 173.033 270.635C173.529 271.275 173.778 272.197 173.778 273.4C173.778 274.597 173.533 275.515 173.043 276.155C172.553 276.792 171.871 277.11 170.998 277.11C170.121 277.11 169.436 276.792 168.943 276.155C168.453 275.518 168.208 274.602 168.208 273.405C168.208 272.605 168.321 271.927 168.548 271.37C168.774 270.813 169.096 270.392 169.513 270.105C169.929 269.815 170.424 269.67 170.998 269.67ZM170.998 275.915C171.428 275.915 171.743 275.723 171.943 275.34C172.143 274.953 172.243 274.308 172.243 273.405C172.243 272.482 172.141 271.82 171.938 271.42C171.734 271.02 171.419 270.82 170.993 270.82C170.566 270.82 170.248 271.022 170.038 271.425C169.831 271.828 169.728 272.488 169.728 273.405C169.728 274.305 169.831 274.948 170.038 275.335C170.244 275.722 170.564 275.915 170.998 275.915ZM177.899 269.77H179.334V274.175H180.449V275.4H179.334V277H177.929L177.934 275.4H174.604V274.2L177.899 269.77ZM175.954 274.175H177.934V271.525L175.954 274.175ZM181.231 277V275.41H182.831V277H181.231ZM186.527 277.11C186.077 277.11 185.657 277.023 185.267 276.85C184.877 276.677 184.558 276.433 184.312 276.12C184.065 275.803 183.927 275.433 183.897 275.01H185.287C185.347 275.29 185.48 275.518 185.687 275.695C185.893 275.868 186.153 275.955 186.467 275.955C186.813 275.955 187.117 275.873 187.377 275.71C187.64 275.547 187.837 275.287 187.967 274.93C188.1 274.573 188.147 274.107 188.107 273.53C188.013 273.707 187.883 273.862 187.717 273.995C187.553 274.125 187.362 274.227 187.142 274.3C186.922 274.37 186.677 274.405 186.407 274.405C185.917 274.405 185.482 274.313 185.102 274.13C184.725 273.943 184.428 273.68 184.212 273.34C183.998 272.997 183.892 272.59 183.892 272.12C183.892 271.647 184.005 271.225 184.232 270.855C184.458 270.485 184.775 270.195 185.182 269.985C185.588 269.775 186.065 269.67 186.612 269.67C187.225 269.67 187.753 269.817 188.197 270.11C188.643 270.4 188.985 270.813 189.222 271.35C189.462 271.883 189.582 272.512 189.582 273.235C189.582 274.098 189.458 274.818 189.212 275.395C188.968 275.968 188.618 276.398 188.162 276.685C187.705 276.968 187.16 277.11 186.527 277.11ZM186.657 273.245C186.86 273.245 187.057 273.2 187.247 273.11C187.44 273.017 187.598 272.9 187.722 272.76C187.845 272.62 187.907 272.475 187.907 272.325C187.91 272.002 187.858 271.725 187.752 271.495C187.648 271.262 187.502 271.083 187.312 270.96C187.125 270.837 186.907 270.775 186.657 270.775C186.427 270.775 186.222 270.828 186.042 270.935C185.862 271.042 185.72 271.192 185.617 271.385C185.513 271.578 185.462 271.802 185.462 272.055C185.462 272.432 185.572 272.725 185.792 272.935C186.012 273.142 186.3 273.245 186.657 273.245ZM193.224 269.67C194.084 269.67 194.762 269.992 195.259 270.635C195.756 271.275 196.004 272.197 196.004 273.4C196.004 274.597 195.759 275.515 195.269 276.155C194.779 276.792 194.097 277.11 193.224 277.11C192.347 277.11 191.662 276.792 191.169 276.155C190.679 275.518 190.434 274.602 190.434 273.405C190.434 272.605 190.547 271.927 190.774 271.37C191.001 270.813 191.322 270.392 191.739 270.105C192.156 269.815 192.651 269.67 193.224 269.67ZM193.224 275.915C193.654 275.915 193.969 275.723 194.169 275.34C194.369 274.953 194.469 274.308 194.469 273.405C194.469 272.482 194.367 271.82 194.164 271.42C193.961 271.02 193.646 270.82 193.219 270.82C192.792 270.82 192.474 271.022 192.264 271.425C192.057 271.828 191.954 272.488 191.954 273.405C191.954 274.305 192.057 274.948 192.264 275.335C192.471 275.722 192.791 275.915 193.224 275.915ZM196.989 277V275.82H198.089V277H196.989Z" fill="#36536B"/>
</g>
<defs>
<filter id="filter0_d_0_4910" x="0.567993" y="-14.4305" width="417.649" height="658.861" filterUnits="userSpaceOnUse" color-interpolation-filters="sRGB">
<feFlood flood-opacity="0" result="BackgroundImageFix"/>
<feColorMatrix in="SourceAlpha" type="matrix" values="0 0 0 0 0 0 0 0 0 0 0 0 0 0 0 0 0 0 127 0" result="hardAlpha"/>
<feOffset dx="25" dy="25"/>
<feGaussianBlur stdDeviation="40"/>
<feColorMatrix type="matrix" values="0 0 0 0 0.212302 0 0 0 0 0.32521 0 0 0 0 0.419299 0 0 0 0.300727 0"/>
<feBlend mode="normal" in2="BackgroundImageFix" result="effect1_dropShadow_0_4910"/>
<feBlend mode="normal" in="SourceGraphic" in2="effect1_dropShadow_0_4910" result="shape"/>
</filter>
<filter id="filter1_d_0_4910" x="70" y="202" width="248" height="117" filterUnits="userSpaceOnUse" color-interpolation-filters="sRGB">
<feFlood flood-opacity="0" result="BackgroundImageFix"/>
<feColorMatrix in="SourceAlpha" type="matrix" values="0 0 0 0 0 0 0 0 0 0 0 0 0 0 0 0 0 0 127 0" result="hardAlpha"/>
<feMorphology radius="10" operator="erode" in="SourceAlpha" result="effect1_dropShadow_0_4910"/>
<feOffset dx="10" dy="10"/>
<feGaussianBlur stdDeviation="12.5"/>
<feColorMatrix type="matrix" values="0 0 0 0 0.212302 0 0 0 0 0.32521 0 0 0 0 0.419299 0 0 0 0.25 0"/>
<feBlend mode="normal" in2="BackgroundImageFix" result="effect1_dropShadow_0_4910"/>
<feBlend mode="normal" in="SourceGraphic" in2="effect1_dropShadow_0_4910" result="shape"/>
</filter>
<linearGradient id="paint0_linear_0_4910" x1="63.0148" y1="40" x2="63.0148" y2="52.3239" gradientUnits="userSpaceOnUse">
<stop stop-color="#454545"/>
<stop offset="0.226279" stop-color="#999999"/>
<stop offset="1" stop-color="white"/>
</linearGradient>
<linearGradient id="paint1_linear_0_4910" x1="313.103" y1="125.747" x2="303.642" y2="125.747" gradientUnits="userSpaceOnUse">
<stop stop-color="white" stop-opacity="0.01"/>
<stop offset="0.222178" stop-color="#BABABA"/>
<stop offset="0.54678" stop-color="white" stop-opacity="0.01"/>
<stop offset="1" stop-color="white" stop-opacity="0.01"/>
</linearGradient>
<linearGradient id="paint2_linear_0_4910" x1="55.568" y1="125.487" x2="65.044" y2="125.487" gradientUnits="userSpaceOnUse">
<stop stop-color="white" stop-opacity="0.01"/>
<stop offset="0.222178" stop-color="#BABABA"/>
<stop offset="0.54678" stop-color="white" stop-opacity="0.01"/>
<stop offset="1" stop-color="white" stop-opacity="0.01"/>
</linearGradient>
<linearGradient id="paint3_linear_0_4910" x1="68.907" y1="52.4445" x2="68.907" y2="513.824" gradientUnits="userSpaceOnUse">
<stop stop-color="#9CB6CD"/>
<stop offset="0.420564" stop-color="#9AB3CA"/>
<stop offset="0.716592" stop-color="#557496"/>
<stop offset="1" stop-color="#475178"/>
</linearGradient>
<clipPath id="clip0_0_4910">
<rect width="233" height="465" fill="white" transform="translate(68.0742 52.4445)"/>
</clipPath>
<clipPath id="clip1_0_4910">
<rect width="218" height="87" fill="white" transform="translate(75 207)"/>
</clipPath>
<clipPath id="clip2_0_4910">
<rect width="187" height="11" fill="white" transform="translate(91 223)"/>
</clipPath>
</defs>
</svg>